<svg width="747" height="467" viewBox="0 0 747 467" fill="none" xmlns="http://www.w3.org/2000/svg">
<path d="M68.235 421.685C68.235 421.685 21.7772 385.394 54.1718 298.642C73.2698 247.501 137.694 255.353 134.435 163.497C131.175 71.6401 190.557 31.5972 297.007 73.2886C323.976 83.8522 355.672 73.9284 389.577 64.0047C452.245 45.6633 522.452 27.3195 584.25 138.377C620.979 204.38 685.253 195.829 702.364 316.535C707.043 349.528 700.028 384.07 665.369 421.685H68.235Z" fill="#FFFDE9"/>
<path d="M377.046 163.807C377.877 164.461 378.685 165.218 379.446 166.086C380.893 167.744 382.226 170.915 382.373 173.115C382.389 173.35 382.399 173.584 382.41 173.815C382.856 187.996 366.359 194.697 356.779 183.965C355.53 182.56 354.386 180.12 353.924 178.011C353.824 177.521 353.749 177.049 353.728 176.624C353.606 174.623 353.814 172.764 354.3 171.071C357.073 161.419 368.682 157.316 377.046 163.807ZM348.798 202.771L354.356 198.652C354.823 198.314 355.439 198.265 355.95 198.524C356.606 198.86 357.278 199.168 357.969 199.453C359.253 199.983 360.547 200.408 361.849 200.717C362.458 200.861 362.916 201.354 363.007 201.97L364.104 209.118C364.214 209.881 364.9 210.433 365.682 210.379L372.277 209.945C373.024 209.893 373.607 209.293 373.645 208.548L373.925 201.896C373.939 201.249 374.389 200.691 375.034 200.516C377.746 199.771 380.337 198.594 382.704 197.03C383.276 196.651 384.049 196.717 384.553 197.177L387.544 199.911C388.116 200.425 388.989 200.441 389.575 199.932L394.486 195.577C394.586 195.489 394.675 195.395 394.745 195.285C395.093 194.776 395.086 194.078 394.701 193.569L391.629 189.413L390.877 188.402C391.5 187.342 392.063 186.219 392.542 185.053C393.188 183.482 393.678 181.878 394.008 180.283C394.136 179.676 394.617 179.204 395.233 179.113L400.99 178.235C401.776 178.111 402.341 177.413 402.283 176.622L401.951 171.578L401.851 170.133C401.802 169.344 401.162 168.713 400.376 168.683L394.818 168.442C394.173 168.424 393.613 167.996 393.44 167.387C392.892 165.568 392.154 163.81 391.234 162.159C391.167 162.007 391.09 161.876 391.008 161.738C390.977 161.692 390.956 161.643 390.935 161.594C390.681 161.04 390.793 160.393 391.209 159.943L395.635 155.079C395.688 155.028 395.73 154.965 395.77 154.906C396.15 154.343 396.106 153.575 395.653 153.052L391.321 148.149C390.798 147.558 389.913 147.462 389.271 147.934L383.475 152.233C382.989 152.604 382.326 152.625 381.806 152.305C380.655 151.609 379.432 150.993 378.141 150.46C377.457 150.178 376.768 149.928 376.075 149.708C375.515 149.524 375.099 149.045 375.013 148.462L373.955 141.592C373.843 140.835 373.164 140.284 372.391 140.336L365.869 140.775C365.08 140.826 364.452 141.457 364.417 142.26L364.193 147.523C364.162 148.228 363.661 148.814 362.972 148.957C360.266 149.482 357.664 150.435 355.247 151.759C354.683 152.081 353.966 151.999 353.48 151.553L349.099 147.56C348.513 147.023 347.614 147.021 347.016 147.544L342.131 151.859C341.542 152.375 341.454 153.262 341.918 153.876L342.096 154.122L345.667 158.948C346.05 159.466 346.069 160.151 345.723 160.695L345.721 160.702C344.892 162.002 344.164 163.392 343.555 164.872C343.23 165.661 342.952 166.453 342.703 167.256C342.539 167.816 342.068 168.227 341.491 168.316L335.648 169.208C334.847 169.327 334.273 170.046 334.329 170.845L334.763 177.343C334.775 177.53 334.826 177.705 334.892 177.862C335.123 178.373 335.634 178.74 336.218 178.768L340.658 178.947C341.202 178.975 341.692 179.293 341.939 179.762C342.002 179.886 342.051 180.019 342.084 180.164C342.777 183.634 344.157 186.921 346.141 189.854C346.487 190.347 346.48 190.998 346.167 191.498C346.122 191.568 346.069 191.636 346.01 191.701L342.422 195.638C341.902 196.208 341.895 197.079 342.404 197.662L342.504 197.777L346.722 202.561C347.259 203.159 348.153 203.248 348.798 202.771Z" fill="#F3E352"/>
<path d="M419.354 107.148C419.931 107.746 420.472 108.423 420.969 109.182C421.91 110.63 422.594 113.241 422.466 114.966C422.454 115.151 422.435 115.333 422.419 115.515C421.201 126.58 407.645 129.964 401.386 120.57C400.572 119.34 399.953 117.32 399.827 115.629C399.801 115.237 399.797 114.863 399.827 114.529C399.953 112.96 400.32 111.541 400.885 110.28C404.104 103.088 413.574 101.183 419.354 107.148ZM393.111 134.3L397.885 131.713C398.284 131.5 398.767 131.531 399.138 131.79C399.608 132.121 400.098 132.437 400.602 132.733C401.541 133.286 402.5 133.761 403.476 134.143C403.936 134.323 404.237 134.755 404.237 135.246L404.302 140.92C404.302 141.524 404.776 142.029 405.388 142.073L410.561 142.463C411.146 142.507 411.665 142.103 411.777 141.529L412.729 136.392C412.811 135.89 413.222 135.507 413.742 135.442C415.932 135.164 418.075 134.536 420.087 133.581C420.573 133.352 421.166 133.487 421.506 133.901L423.526 136.355C423.915 136.817 424.592 136.927 425.104 136.595L429.399 133.753C429.488 133.697 429.567 133.634 429.632 133.555C429.959 133.198 430.032 132.656 429.789 132.217L427.861 128.649L427.387 127.781C427.989 127.026 428.549 126.216 429.051 125.364C429.726 124.215 430.281 123.022 430.715 121.819C430.881 121.362 431.306 121.049 431.794 121.046L436.365 121C436.988 120.99 437.506 120.509 437.548 119.888L437.847 115.933L437.929 114.8C437.978 114.182 437.551 113.621 436.941 113.511L432.651 112.71C432.151 112.624 431.764 112.232 431.698 111.737C431.472 110.263 431.091 108.818 430.561 107.433C430.524 107.307 430.477 107.198 430.431 107.081C430.412 107.043 430.4 107.001 430.391 106.962C430.256 106.504 430.412 106.011 430.783 105.708L434.761 102.418C434.808 102.385 434.847 102.341 434.885 102.299C435.242 101.904 435.293 101.302 434.997 100.846L432.172 96.5593C431.831 96.0409 431.157 95.8705 430.606 96.1647L425.629 98.8662C425.209 99.0998 424.693 99.0437 424.322 98.7378C423.505 98.07 422.625 97.4559 421.679 96.9002C421.18 96.606 420.671 96.3351 420.157 96.0876C419.742 95.8821 419.473 95.4642 419.471 95.0018L419.408 89.5473C419.403 88.9472 418.934 88.4451 418.329 88.3984L413.215 88.0202C412.596 87.9735 412.038 88.3938 411.921 89.0126L411.167 93.0778C411.065 93.6219 410.612 94.0211 410.061 94.0561C407.902 94.1659 405.773 94.6189 403.751 95.3801C403.277 95.5692 402.729 95.4245 402.4 95.0252L399.437 91.4409C399.04 90.9576 398.345 90.8572 397.822 91.1958L393.55 94.0094C393.034 94.3457 392.868 95.0252 393.162 95.5552L393.272 95.7654L395.515 99.9077C395.756 100.354 395.695 100.888 395.366 101.271L395.364 101.276C394.575 102.196 393.858 103.195 393.221 104.276C392.88 104.856 392.579 105.439 392.296 106.035C392.105 106.453 391.694 106.719 391.237 106.726L386.598 106.773C385.963 106.777 385.438 107.272 385.394 107.898L385.013 112.995C385.004 113.14 385.022 113.283 385.057 113.413C385.179 113.836 385.536 114.177 385.987 114.263L389.416 114.891C389.836 114.973 390.181 115.274 390.322 115.667C390.357 115.769 390.382 115.879 390.389 115.993C390.546 118.767 391.255 121.474 392.474 123.97C392.686 124.39 392.609 124.897 392.313 125.249C392.268 125.301 392.219 125.347 392.168 125.392L388.947 128.054C388.48 128.439 388.377 129.114 388.708 129.625L388.774 129.726L391.521 133.905C391.874 134.431 392.558 134.599 393.111 134.3Z" fill="#F3E352"/>
<path d="M639.399 312.99C640.109 313.731 640.779 314.566 641.391 315.505C642.553 317.291 643.398 320.514 643.239 322.643C643.225 322.872 643.202 323.096 643.181 323.323C641.678 336.985 624.94 341.162 617.213 329.562C616.205 328.044 615.442 325.55 615.285 323.463C615.255 322.979 615.248 322.517 615.285 322.106C615.442 320.168 615.894 318.417 616.592 316.857C620.568 307.977 632.261 305.623 639.399 312.99ZM606.996 346.514L612.888 343.32C613.38 343.058 613.978 343.096 614.435 343.415C615.017 343.826 615.619 344.216 616.242 344.583C617.402 345.265 618.586 345.851 619.793 346.322C620.358 346.544 620.731 347.079 620.734 347.681L620.811 354.689C620.813 355.436 621.397 356.059 622.153 356.115L628.54 356.596C629.263 356.65 629.903 356.153 630.041 355.443L631.217 349.101C631.318 348.48 631.827 348.008 632.469 347.927C635.172 347.583 637.819 346.806 640.3 345.629C640.9 345.344 641.633 345.512 642.054 346.024L644.549 349.052C645.027 349.624 645.863 349.76 646.496 349.351L651.8 345.844C651.909 345.771 652.007 345.692 652.089 345.596C652.493 345.155 652.579 344.487 652.28 343.945L649.899 339.539L649.316 338.468C650.058 337.536 650.749 336.534 651.368 335.481C652.203 334.064 652.89 332.593 653.424 331.108C653.63 330.54 654.155 330.153 654.757 330.153L660.399 330.094C661.172 330.083 661.809 329.489 661.861 328.721L662.229 323.839L662.332 322.44C662.391 321.677 661.865 320.983 661.114 320.848L655.815 319.86C655.198 319.752 654.72 319.267 654.638 318.657C654.358 316.838 653.891 315.052 653.233 313.343C653.188 313.189 653.132 313.053 653.074 312.909C653.051 312.86 653.037 312.811 653.025 312.761C652.857 312.194 653.051 311.589 653.511 311.213L658.42 307.15C658.478 307.108 658.527 307.055 658.574 307.003C659.013 306.515 659.078 305.773 658.712 305.21L655.224 299.917C654.804 299.277 653.968 299.067 653.289 299.431L647.145 302.765C646.627 303.055 645.989 302.985 645.532 302.607C644.523 301.782 643.433 301.023 642.268 300.337C641.65 299.973 641.024 299.639 640.389 299.333C639.876 299.081 639.544 298.565 639.539 297.993L639.462 291.258C639.458 290.518 638.879 289.897 638.132 289.841L631.815 289.374C631.052 289.313 630.365 289.834 630.221 290.6L629.287 295.618C629.163 296.29 628.603 296.783 627.924 296.825C625.255 296.963 622.627 297.521 620.131 298.462C619.545 298.693 618.868 298.516 618.465 298.023L614.807 293.596C614.314 293 613.455 292.877 612.811 293.295L607.535 296.769C606.9 297.185 606.695 298.023 607.057 298.677L607.194 298.936L609.963 304.052C610.259 304.601 610.185 305.261 609.778 305.735L609.774 305.742C608.803 306.875 607.916 308.11 607.129 309.446C606.709 310.158 606.335 310.882 605.987 311.617C605.752 312.133 605.245 312.463 604.68 312.47L598.952 312.528C598.17 312.533 597.521 313.144 597.465 313.917L596.995 320.21C596.984 320.39 597.007 320.565 597.049 320.726C597.201 321.247 597.64 321.667 598.198 321.775L602.432 322.552C602.95 322.655 603.378 323.024 603.55 323.507C603.595 323.636 603.623 323.771 603.634 323.913C603.826 327.337 604.703 330.678 606.207 333.763C606.471 334.281 606.375 334.904 606.006 335.341C605.955 335.404 605.894 335.462 605.829 335.516L601.851 338.804C601.274 339.278 601.148 340.111 601.557 340.744L601.638 340.868L605.033 346.031C605.467 346.677 606.312 346.885 606.996 346.514Z" fill="#F3E352"/>
<path d="M659.188 267.491C659.568 267.885 659.928 268.334 660.255 268.836C660.878 269.791 661.328 271.514 661.244 272.656C661.235 272.777 661.223 272.896 661.212 273.018C660.409 280.326 651.454 282.563 647.32 276.357C646.781 275.544 646.372 274.208 646.288 273.092C646.274 272.833 646.269 272.586 646.288 272.366C646.372 271.329 646.615 270.393 646.988 269.559C649.115 264.808 655.371 263.549 659.188 267.491ZM641.853 285.426L645.006 283.717C645.27 283.576 645.59 283.597 645.833 283.768C646.146 283.987 646.468 284.195 646.802 284.391C647.422 284.756 648.055 285.071 648.699 285.323C649.003 285.442 649.201 285.727 649.204 286.049L649.246 289.797C649.246 290.198 649.558 290.532 649.962 290.56L653.38 290.82C653.767 290.848 654.11 290.581 654.183 290.201L654.813 286.808C654.867 286.476 655.138 286.224 655.481 286.18C656.928 285.998 658.343 285.582 659.673 284.952C659.993 284.8 660.385 284.889 660.609 285.162L661.945 286.782C662.201 287.088 662.647 287.161 662.986 286.941L665.824 285.066C665.883 285.026 665.934 284.987 665.978 284.933C666.193 284.697 666.24 284.34 666.081 284.05L664.807 281.692L664.496 281.12C664.893 280.623 665.262 280.086 665.593 279.523C666.039 278.764 666.408 277.977 666.693 277.183C666.802 276.88 667.083 276.672 667.407 276.672L670.425 276.641C670.836 276.634 671.179 276.317 671.205 275.906L671.403 273.293L671.457 272.546C671.49 272.137 671.207 271.766 670.806 271.694L667.972 271.166C667.643 271.108 667.386 270.848 667.342 270.521C667.192 269.548 666.943 268.593 666.59 267.677C666.567 267.596 666.536 267.523 666.506 267.446C666.492 267.421 666.485 267.395 666.478 267.367C666.389 267.063 666.494 266.741 666.739 266.54L669.366 264.366C669.396 264.343 669.422 264.315 669.447 264.287C669.683 264.025 669.716 263.629 669.522 263.327L667.657 260.495C667.43 260.154 666.985 260.042 666.62 260.236L663.334 262.02C663.056 262.174 662.715 262.136 662.47 261.933C661.931 261.494 661.347 261.088 660.724 260.721C660.395 260.525 660.058 260.348 659.72 260.184C659.444 260.049 659.267 259.771 659.265 259.468L659.223 255.865C659.22 255.468 658.912 255.136 658.513 255.106L655.133 254.856C654.724 254.823 654.356 255.101 654.279 255.51L653.779 258.195C653.714 258.557 653.413 258.821 653.051 258.842C651.622 258.914 650.217 259.213 648.882 259.717C648.569 259.841 648.207 259.745 647.99 259.482L646.031 257.114C645.77 256.796 645.31 256.729 644.964 256.953L642.142 258.811C641.804 259.033 641.694 259.482 641.888 259.832L641.96 259.972L643.44 262.709C643.599 263 643.559 263.355 643.342 263.608L643.34 263.612C642.821 264.219 642.345 264.878 641.925 265.595C641.701 265.975 641.5 266.36 641.313 266.755C641.19 267.031 640.917 267.208 640.615 267.21L637.55 267.243C637.133 267.245 636.785 267.572 636.754 267.986L636.505 271.353C636.498 271.448 636.512 271.542 636.533 271.628C636.614 271.908 636.85 272.133 637.147 272.189L639.413 272.607C639.689 272.66 639.918 272.859 640.011 273.116C640.034 273.186 640.051 273.258 640.055 273.333C640.158 275.166 640.627 276.952 641.433 278.603C641.573 278.881 641.521 279.215 641.325 279.448C641.297 279.481 641.264 279.511 641.229 279.542L639.101 281.3C638.792 281.554 638.725 282 638.944 282.337L638.988 282.404L640.805 285.167C641.036 285.512 641.489 285.622 641.853 285.426Z" fill="#AEC3FF"/>
<path d="M136.133 266.4C136.55 266.834 136.943 267.325 137.302 267.873C137.984 268.924 138.48 270.813 138.387 272.062C138.378 272.196 138.365 272.329 138.352 272.459C137.471 280.473 127.653 282.925 123.12 276.121C122.529 275.231 122.08 273.767 121.989 272.543C121.972 272.259 121.967 271.988 121.99 271.747C122.081 270.61 122.347 269.583 122.755 268.667C125.088 263.46 131.946 262.08 136.133 266.4ZM117.126 286.065L120.583 284.19C120.872 284.039 121.222 284.06 121.49 284.246C121.832 284.487 122.185 284.716 122.551 284.931C123.232 285.332 123.925 285.676 124.633 285.953C124.965 286.082 125.184 286.397 125.185 286.75L125.231 290.859C125.232 291.298 125.574 291.662 126.018 291.695L129.764 291.978C130.188 292.01 130.564 291.718 130.644 291.303L131.334 287.581C131.394 287.219 131.692 286.941 132.068 286.892C133.655 286.691 135.207 286.236 136.663 285.545C137.015 285.379 137.445 285.477 137.691 285.776L139.155 287.553C139.436 287.889 139.926 287.968 140.296 287.728L143.408 285.671C143.472 285.629 143.529 285.582 143.577 285.526C143.814 285.267 143.866 284.875 143.689 284.557L142.293 281.972L141.951 281.344C142.387 280.798 142.792 280.212 143.155 279.593C143.645 278.762 144.048 277.898 144.361 277.027C144.482 276.695 144.789 276.469 145.143 276.466L148.453 276.434C148.905 276.427 149.279 276.079 149.309 275.628L149.526 272.763L149.586 271.943C149.62 271.495 149.312 271.089 148.871 271.009L145.763 270.43C145.402 270.367 145.121 270.082 145.072 269.725C144.909 268.658 144.634 267.61 144.249 266.606C144.223 266.517 144.189 266.437 144.155 266.351C144.141 266.323 144.134 266.295 144.126 266.265C144.028 265.933 144.142 265.578 144.411 265.359L147.291 262.975C147.325 262.951 147.354 262.919 147.381 262.888C147.639 262.603 147.676 262.167 147.463 261.838L145.417 258.732C145.17 258.356 144.68 258.232 144.281 258.445L140.677 260.401C140.373 260.572 139.999 260.53 139.731 260.308C139.139 259.827 138.501 259.381 137.817 258.977C137.454 258.765 137.087 258.569 136.715 258.389C136.413 258.242 136.219 257.938 136.217 257.602L136.171 253.653C136.168 253.219 135.829 252.855 135.391 252.822L131.685 252.547C131.238 252.512 130.834 252.817 130.75 253.266L130.203 256.21C130.13 256.605 129.801 256.894 129.403 256.918C127.838 256.997 126.296 257.326 124.832 257.877C124.488 258.013 124.091 257.91 123.853 257.621L121.708 255.024C121.42 254.676 120.916 254.601 120.537 254.847L117.443 256.885C117.071 257.128 116.951 257.621 117.163 258.003L117.243 258.155L118.867 261.158C119.041 261.478 118.997 261.866 118.759 262.143L118.757 262.148C118.187 262.814 117.666 263.537 117.205 264.322C116.959 264.74 116.74 265.163 116.535 265.595C116.397 265.898 116.1 266.09 115.769 266.094L112.409 266.129C111.949 266.132 111.569 266.491 111.536 266.944L111.261 270.636C111.254 270.741 111.268 270.844 111.292 270.937C111.381 271.243 111.639 271.49 111.966 271.553L114.45 272.009C114.753 272.069 115.004 272.287 115.106 272.569C115.131 272.644 115.149 272.723 115.155 272.807C115.268 274.815 115.782 276.777 116.664 278.584C116.818 278.89 116.763 279.254 116.547 279.511C116.516 279.548 116.481 279.581 116.442 279.614L114.109 281.54C113.771 281.82 113.697 282.308 113.937 282.68L113.984 282.752L115.975 285.781C116.23 286.159 116.725 286.283 117.126 286.065Z" fill="#F3E352"/>
<path d="M478.029 167.399C479.327 168.452 480.58 169.668 481.759 171.06C484 173.715 486.019 178.756 486.194 182.233C486.215 182.606 486.227 182.973 486.236 183.342C486.57 205.742 460.346 215.887 445.501 198.69C443.564 196.439 441.822 192.558 441.148 189.217C441.003 188.439 440.898 187.692 440.875 187.022C440.735 183.858 441.115 180.93 441.925 178.268C446.559 163.102 464.993 156.928 478.029 167.399ZM432.406 228.176L441.288 221.818C442.035 221.295 443.008 221.234 443.811 221.659C444.834 222.206 445.889 222.712 446.972 223.179C448.984 224.048 451.018 224.755 453.065 225.276C454.022 225.521 454.734 226.308 454.86 227.284L456.405 238.6C456.559 239.807 457.628 240.699 458.863 240.633L469.289 240.12C470.47 240.059 471.406 239.125 471.483 237.951L472.104 227.455C472.141 226.432 472.867 225.563 473.887 225.302C478.192 224.2 482.314 222.409 486.091 219.999C487.004 219.42 488.223 219.544 489.007 220.284L493.655 224.678C494.544 225.505 495.926 225.554 496.862 224.765L504.731 218.019C504.895 217.881 505.035 217.736 505.149 217.564C505.712 216.767 505.719 215.668 505.124 214.853L500.383 208.21L499.222 206.591C500.235 204.938 501.151 203.178 501.94 201.349C503.002 198.886 503.814 196.369 504.379 193.859C504.596 192.901 505.366 192.168 506.342 192.044L515.456 190.809C516.7 190.632 517.61 189.544 517.54 188.294L517.148 180.32L517.031 178.037C516.971 176.79 515.981 175.779 514.737 175.709L505.969 175.183C504.951 175.134 504.08 174.446 503.821 173.479C503.002 170.593 501.884 167.798 500.476 165.166C500.371 164.926 500.252 164.718 500.128 164.496C500.081 164.424 500.051 164.347 500.018 164.267C499.633 163.387 499.827 162.367 500.492 161.666L507.61 154.103C507.696 154.024 507.764 153.923 507.829 153.835C508.441 152.957 508.394 151.742 507.691 150.906L500.98 143.049C500.168 142.101 498.777 141.928 497.749 142.655L488.487 149.293C487.707 149.865 486.661 149.881 485.846 149.361C484.049 148.233 482.135 147.226 480.109 146.351C479.037 145.889 477.956 145.475 476.868 145.109C475.986 144.807 475.344 144.037 475.223 143.115L473.733 132.238C473.577 131.04 472.517 130.155 471.296 130.214L460.985 130.737C459.739 130.797 458.733 131.778 458.653 133.041L458.161 141.347C458.095 142.461 457.288 143.371 456.2 143.577C451.912 144.338 447.775 145.772 443.928 147.801C443.027 148.294 441.897 148.144 441.141 147.43L434.331 141.008C433.416 140.147 432.002 140.121 431.042 140.927L423.213 147.612C422.27 148.413 422.109 149.811 422.828 150.797L423.101 151.187L428.612 158.901C429.203 159.728 429.217 160.811 428.657 161.659L428.65 161.671C427.307 163.702 426.121 165.878 425.122 168.199C424.588 169.435 424.13 170.679 423.715 171.942C423.439 172.823 422.685 173.458 421.772 173.584L412.521 174.838C411.256 175.004 410.332 176.124 410.397 177.388L410.911 187.659C410.929 187.951 411.002 188.231 411.102 188.481C411.452 189.296 412.248 189.887 413.17 189.945L420.178 190.347C421.035 190.405 421.801 190.917 422.179 191.664C422.274 191.862 422.351 192.077 422.396 192.304C423.4 197.8 425.493 203.028 428.552 207.712C429.081 208.499 429.053 209.524 428.547 210.306C428.474 210.419 428.388 210.524 428.292 210.626L422.524 216.744C421.688 217.631 421.653 219.004 422.442 219.943L422.599 220.127L429.133 227.791C429.966 228.748 431.374 228.914 432.406 228.176Z" fill="#F3E352"/>
<path d="M156.709 209.321C159.49 195.213 183.149 197.905 183.149 197.905C183.149 197.905 200.703 221.024 205.357 221.276C210.011 221.531 194.207 198.58 194.207 198.58C203.085 197.09 226.631 206.456 226.631 206.456C226.631 206.456 227.167 234.822 231.74 233.923C236.313 233.024 229.985 208.829 229.985 208.829C238.818 210.82 247.598 220.349 247.598 220.349C258.84 236.083 238.06 249.712 238.06 249.712C238.06 249.712 238.459 259.538 245.301 270.363C245.301 270.363 246.813 272.345 248.45 275.778L246.09 275.941C245.854 275.322 245.6 274.727 245.322 274.155L245.317 274.145L245.305 274.122C245.119 273.767 244.85 273.265 244.516 272.653L244.514 272.651L244.512 272.649C243.695 271.287 243.134 270.279 242.773 269.55L242.77 269.543C240.303 265.265 236.787 259.713 234.628 258.646C234.628 258.646 234.864 258.26 235.058 257.53C234.922 257.885 234.78 258.258 234.628 258.646C231.198 267.582 211.114 270.437 199.707 268.917C188.3 267.397 192.98 263.881 198.675 258.307C204.37 252.734 217.152 253.203 220.76 250.922C224.367 248.64 218.747 247.006 211.29 248.108C203.834 249.208 200.61 256.969 188.58 258.973C176.55 260.974 165.728 238.833 165.728 238.833C174.272 240.844 188.944 235.179 189.319 232.253C189.565 230.327 180.013 230.469 172.464 230.614C168.559 230.686 165.19 230.761 163.99 230.549C160.469 229.925 153.93 223.427 156.709 209.321Z" fill="#F3E352"/>
<path d="M347.269 262.986L334.754 411.817C334.754 411.817 333.444 420.839 340.153 420.856C351.183 420.881 395.058 420.856 395.058 420.856C395.058 420.856 386.755 418.978 386.855 414.752C386.974 409.772 401.482 261.578 401.482 261.578L347.269 262.986Z" fill="#001BA9"/>
<path d="M398.618 418.154C396.447 418.161 354.543 418.292 343.8 418.154C339.119 418.096 338.298 413.991 338.26 411.334C338.239 410.061 338.4 409.118 338.4 409.118L338.727 405.251L339.556 395.39L340.289 386.681L341.23 375.487L342.023 366.039L350.915 260.285L405.129 258.877C405.129 258.877 399.017 320.894 394.696 366.039C394.213 371.069 393.753 375.893 393.331 380.395C393.193 381.831 393.06 383.237 392.931 384.605C392.53 388.876 392.163 392.798 391.846 396.261C391.678 398.087 391.522 399.782 391.381 401.337C390.831 407.425 390.508 411.313 390.504 412.053C390.501 412.482 390.539 412.884 390.609 413.258C391.498 418 397.803 418.154 398.618 418.154Z" fill="#AEC3FF"/>
<path d="M215.61 181.997L246.092 304.468L250.264 321.24L264.461 378.284H528.213L475.886 181.997H215.61Z" fill="#AEC3FF"/>
<path d="M215.61 181.997L211.385 183.407L258.845 382.543L264.461 378.284L215.61 181.997Z" fill="#001BA9"/>
<path d="M258.845 382.543H520.974L528.213 378.284H264.461L258.845 382.543Z" fill="#001BA9"/>
<path d="M350.896 420.912H407.652V418.215H350.896V420.912Z" fill="#AEC3FF"/>
<path d="M392.931 384.605C392.994 383.928 393.06 383.239 393.125 382.543H393.223L392.931 384.605Z" fill="#6FA0F4"/>
<path d="M339.556 395.39L340.289 386.681L340.637 382.543H393.125C393.06 383.239 392.994 383.928 392.931 384.605L339.556 395.39Z" fill="#86A7E9"/>
<path d="M398.618 418.154C396.447 418.161 354.543 418.292 343.8 418.154C339.119 418.096 338.298 413.991 338.26 411.333L391.381 401.337C390.83 407.425 390.508 411.312 390.504 412.053C390.501 412.482 390.539 412.884 390.609 413.258C391.498 418 397.803 418.154 398.618 418.154Z" fill="#274179"/>
<path d="M380.323 338.547L264.461 378.284L250.264 321.24L380.323 338.547Z" fill="#274179"/>
<path d="M215.61 181.997H475.886L517.797 339.75H254.886L215.61 181.997Z" fill="#3358AB"/>
<path d="M505.191 331.304H263.488L226.1 187.601L467.391 189.256L505.191 331.304Z" fill="#C0D1FF"/>
<path d="M405.016 273.599V331.299H313.593V273.599H405.016Z" fill="#781616"/>
<path d="M450.728 273.601V331.299H359.305V273.601H450.728Z" fill="#D92424"/>
<path d="M359.305 282.124L340.034 301.399H313.647V273.599H359.305V282.124Z" fill="#000745"/>
<path d="M313.593 273.599L293.039 293.439H338.778L359.305 273.599H313.593Z" fill="#D92424"/>
<path d="M450.728 275.644L359.305 273.601V282.105L376.304 300.748H450.728V282.189L450.257 281.636H450.728V275.644Z" fill="#781616"/>
<path d="M359.305 273.599L377.394 293.439H467.608L450.728 273.599H359.305Z" fill="#D92424"/>
<path d="M199.996 266.297C199.996 266.297 200.632 259.37 192.892 259.37C192.892 259.37 195.237 260.005 196.45 261.277C196.45 261.277 191.514 258.38 186.141 262.832C180.769 267.288 184.107 278.46 182.473 280.581C180.84 282.703 174.478 283.126 175.255 289.986C176.033 296.844 195.446 305.434 194.2 311.108C194.2 311.108 201.808 299.921 196.368 294.817C196.368 294.817 199.019 297.316 199.29 300.286C199.29 300.286 200.009 294.488 196.321 292.632C193.057 290.99 190.383 284.989 190.665 283.917C190.948 282.843 199.996 266.297 199.996 266.297Z" fill="#2C3A64"/>
<path d="M192.377 299.569C192.377 299.569 198.159 323.496 203.835 328.28C207.247 331.154 217.392 337.753 217.392 337.753L213.172 339.285C213.172 339.285 199.101 334.533 195.951 330.827C192.801 327.122 184.176 308.559 184.176 308.559L192.377 299.569Z" fill="#FFB27D"/>
<path d="M225.66 346.5L224.301 343.133C222.844 339.523 219.342 337.16 215.451 337.16H190.383V353.071V420.998H294.08V353.071H235.401C231.118 353.071 227.264 350.472 225.66 346.5Z" fill="#D92424"/>
<path d="M206.025 388.142V382.099L227.215 372.816V378.989L212.417 385.077L227.215 391.164V397.426L206.025 388.142Z" fill="white"/>
<path d="M249.237 365.589H254.886L235.489 406.143H229.842L249.237 365.589Z" fill="white"/>
<path d="M278.44 382.099V388.142L257.248 397.426V391.253L272.048 385.165L257.248 379.078V372.816L278.44 382.099Z" fill="white"/>
<path d="M138.03 341.606C138.081 341.699 138.135 341.793 138.189 341.889C139.455 344.088 142.357 349.477 145.555 355.378C147.067 358.175 148.65 361.089 150.152 363.831C152.741 368.561 155.095 372.776 156.469 375.001C157.866 377.266 158.895 378.856 159.311 379.494L159.314 379.496C159.439 379.692 159.467 379.923 159.45 380.152C159.304 382.149 159.345 384.133 159.541 386.085C161.469 405.277 174.407 415.562 174.407 415.562L178.254 416.13C178.254 416.13 172.81 395.958 171.207 384.551C170.936 382.62 170.817 381.054 170.912 380.031C171.196 377.058 170.669 372.697 169.671 367.688C167.894 358.789 164.636 347.864 161.804 339.119C161.625 338.561 156.215 318.987 156.215 318.987C151.675 322.956 135.114 324.596 135.114 324.596C135.114 324.596 132.306 331.423 138.03 341.606Z" fill="#2F539B"/>
<path d="M186.327 420.998H170.273C170.273 420.998 169.888 418.551 170.726 416.695C171.53 414.913 172.675 414.855 170.873 412.062C171.893 413.113 175.172 413.547 177.493 413.237C177.778 413.697 179.327 416.791 180.277 417.472C181.326 418.227 186.004 417.958 186.327 420.998Z" fill="#625423"/>
<path d="M138.03 341.606C138.081 341.699 138.135 341.793 138.189 341.888C139.455 344.088 146.298 356.73 149.495 362.628C145.79 347.383 148.367 332.138 148.367 332.138L138.03 341.606Z" fill="#625423"/>
<path d="M197.807 265.324C197.912 264.901 188.637 269.517 188.167 270.038C183.817 274.865 185.057 281.162 187.546 281.223C189.142 281.262 188.833 283.917 188.833 283.917L206.616 276.392C206.616 276.392 204.475 263.904 197.807 265.324Z" fill="#2C3A64"/>
<path d="M191.831 295.975C191.831 295.975 194.537 301.381 194.199 305.77C194.199 305.77 190.936 310.921 182.473 312.227C182.473 312.227 189.749 295.971 191.831 295.975Z" fill="#D92424"/>
<path d="M150.546 325.791L150.6 322.786C144.618 323.542 129.972 315.636 129.972 315.636C129.972 315.636 123.713 319.799 122.856 331.691C122.438 337.496 119.792 362.042 119.5 369.371C119.393 372.028 119.358 373.924 119.346 374.681L119.347 374.688C119.343 374.919 119.234 375.125 119.092 375.307C117.854 376.881 116.78 378.548 115.85 380.278C106.721 397.267 111.495 420.354 111.495 420.354L113.615 419.814C113.615 419.814 121.334 395.883 126.379 385.529C127.236 383.773 128.013 382.41 128.664 381.618C130.561 379.314 132.561 375.4 134.533 370.69C138.26 361.785 150.546 325.791 150.546 325.791Z" fill="#2F539B"/>
<path d="M124.262 420.998H108.208C108.208 420.998 107.823 418.551 108.661 416.695C109.465 414.913 110.723 414.103 110.422 411.945C111.442 412.996 113.105 414.173 115.426 413.862C115.71 414.322 117.262 416.791 118.212 417.472C119.261 418.227 123.939 417.958 124.262 420.998Z" fill="#625423"/>
<path d="M181.39 315.676C179.233 316.042 181.742 317.759 178.775 318.081C174.554 318.541 170.195 318.856 167.912 319.767C167.079 320.101 166.522 320.509 166.348 321.035C165.359 324.012 159.091 329.128 159.091 329.128C131.135 327.853 129.334 315.391 129.334 315.391C147.478 297.764 162.914 288.158 175.671 286.967C178.775 286.677 182.961 287.067 184.924 287.94C189.386 289.928 191.831 295.975 191.831 295.975C191.831 295.975 189.584 314.277 181.39 315.676Z" fill="#D92424"/>
<path d="M178.776 318.081C174.554 318.541 170.195 318.856 167.912 319.767C166.979 305.822 173.559 295.331 173.559 295.331C173.559 295.331 177.851 312.804 178.776 318.081Z" fill="#781616"/>
<path d="M182.418 292.97C182.418 292.97 171.802 292.389 169.915 299.058C168.029 305.724 173.454 332.336 174.623 335.082C176.752 340.083 187.115 354.355 187.115 354.355L190.926 353.194C190.926 353.194 184.016 331.39 182.473 329.233C180.052 325.847 185.595 295.87 182.418 292.97Z" fill="#FFB27D"/>
<path d="M190.926 353.194C190.926 353.194 191.122 354.885 191.836 355.756C192.55 356.629 194.628 358.742 194.664 359.978C194.664 359.978 194.56 360.526 194.114 360.426C193.669 360.326 192.121 358.794 191.327 358.904C191.327 358.904 191.751 361.381 192.171 362.079C192.591 362.777 192.257 365.736 192.005 366.338C191.753 366.941 188.655 363.104 187.382 361.393C186.109 359.679 187.362 352.73 187.362 352.73L190.926 353.194Z" fill="#FFB27D"/>
<path d="M167.822 307.973C167.849 308.129 177.868 309.815 184.134 306.635C184.134 306.635 189.369 290.231 181.888 291.016C174.407 291.8 169.977 294.156 169.789 297.741C169.6 301.322 167.822 307.973 167.822 307.973Z" fill="#D92424"/>
<path d="M184.685 289.092C185.483 291.593 188.144 298.717 191.831 295.975C191.706 295.443 192.48 293.897 193.394 292.326C194.561 290.32 195.952 288.268 195.952 288.268L189.943 283.002L189.584 282.689C188.013 285.433 186.468 286.754 185.115 287.763C184.703 288.071 184.529 288.601 184.685 289.092Z" fill="#FFB27D"/>
<path d="M195.951 288.27C195.951 288.27 194.562 290.318 193.395 292.326C189.66 290.023 189.656 285.398 189.943 283.002L195.951 288.27Z" fill="#ED985F"/>
<path d="M196.118 290.908C196.118 290.908 187.049 285.862 190.279 280.261C193.508 274.661 194.512 270.239 200.439 273.223C206.365 276.21 206.248 278.991 205.625 281.122C205.001 283.252 198.56 292.078 196.118 290.908Z" fill="#FFB27D"/>
<path d="M207.156 277.856C206.741 275.369 205.478 275.131 204.598 275.297C201.249 269.758 195.778 271.92 195.778 271.92C192.855 275.588 188.63 276.214 188.63 276.214C188.63 276.214 189.683 278.171 194.018 279.385C195.343 279.754 196.846 279.53 198.296 279.042C195.288 280.721 192.142 281.363 192.142 281.363C197.855 281.886 203.292 276.66 203.855 276.102C204.119 276.912 204.581 278.608 204.305 279.845C203.928 281.531 202.434 284.58 203.346 284.975C203.346 284.975 207.779 281.585 207.156 277.856Z" fill="#2C3A64"/>
<path d="M219.051 337.765C219.051 337.765 216.521 339.663 218.428 340.905C220.335 342.145 223.74 342.482 223.754 341.667C223.801 338.935 222.438 336.99 219.051 337.765Z" fill="#FFB27D"/>
<path d="M691.369 422.455H41.0756C40.6918 422.455 40.3781 422.14 40.3781 421.757V421.61C40.3781 421.227 40.6918 420.912 41.0756 420.912H691.369C691.752 420.912 692.067 421.227 692.067 421.61V421.757C692.067 422.14 691.752 422.455 691.369 422.455Z" fill="#2E3552"/>
<path d="M258.488 233.556C258.303 232.795 257.787 232.221 257.232 232.221C256.674 232.223 256.445 232.781 256.634 233.558C256.821 234.327 257.328 234.894 257.89 234.892C258.453 234.892 258.674 234.329 258.488 233.556ZM255.679 233.561C255.383 232.344 255.915 231.392 257.043 231.389C258.161 231.387 259.146 232.326 259.443 233.554C259.737 234.77 259.211 235.723 258.079 235.725C256.947 235.728 255.976 234.789 255.679 233.561Z" fill="#D92424"/>
<path d="M239.404 202.057L238.709 202.237L238.333 201.482L239.463 201.12H240.1L241.12 205.342L240.2 205.345L239.404 202.057Z" fill="#274179"/>
<path d="M245.516 203.238C245.331 202.477 244.818 201.903 244.26 201.903C243.704 201.905 243.475 202.463 243.664 203.241C243.849 204.007 244.355 204.576 244.92 204.574C245.483 204.574 245.702 204.011 245.516 203.238ZM242.707 203.243C242.413 202.026 242.945 201.074 244.071 201.071C245.191 201.069 246.176 202.008 246.473 203.236C246.767 204.453 246.242 205.405 245.109 205.408C243.977 205.41 243.004 204.471 242.707 203.243Z" fill="#274179"/>
<path d="M316.88 201.915L316.184 202.097L315.808 201.342L316.938 200.981L317.573 200.978L318.595 205.202H317.676L316.88 201.915Z" fill="#274179"/>
<path d="M322.991 203.096C322.807 202.337 322.291 201.763 321.735 201.763C321.177 201.765 320.951 202.321 321.138 203.101C321.324 203.866 321.831 204.434 322.394 204.434C322.956 204.434 323.178 203.869 322.991 203.096ZM320.183 203.101C319.889 201.886 320.421 200.931 321.546 200.931C322.667 200.929 323.649 201.868 323.946 203.096C324.242 204.31 323.715 205.265 322.583 205.268C321.45 205.268 320.479 204.329 320.183 203.101Z" fill="#274179"/>
<path d="M328.619 203.087C328.435 202.328 327.921 201.753 327.363 201.753C326.808 201.753 326.579 202.311 326.768 203.091C326.953 203.857 327.459 204.425 328.024 204.425C328.587 204.425 328.806 203.86 328.619 203.087ZM325.811 203.091C325.517 201.877 326.049 200.922 327.174 200.922C328.295 200.92 329.28 201.858 329.576 203.087C329.871 204.301 329.345 205.256 328.213 205.256C327.081 205.258 326.108 204.32 325.811 203.091Z" fill="#274179"/>
<path d="M357.411 203.096C357.227 202.337 356.711 201.763 356.156 201.763C355.598 201.765 355.369 202.321 355.558 203.101C355.745 203.866 356.251 204.434 356.814 204.434C357.376 204.434 357.598 203.869 357.411 203.096ZM354.601 203.101C354.307 201.886 354.839 200.931 355.966 200.931C357.085 200.929 358.07 201.868 358.366 203.096C358.66 204.31 358.135 205.265 357.003 205.268C355.871 205.268 354.9 204.329 354.601 203.101Z" fill="#274179"/>
<path d="M363.04 203.087C362.855 202.328 362.342 201.753 361.784 201.753C361.228 201.753 360.999 202.311 361.189 203.091C361.373 203.857 361.88 204.425 362.442 204.425C363.007 204.425 363.227 203.86 363.04 203.087ZM360.231 203.091C359.937 201.877 360.47 200.922 361.595 200.922C362.715 200.92 363.698 201.858 363.997 203.087C364.291 204.301 363.763 205.256 362.631 205.256C361.501 205.258 360.528 204.32 360.231 203.091Z" fill="#274179"/>
<path d="M368.67 203.077C368.486 202.318 367.97 201.744 367.414 201.744C366.856 201.744 366.628 202.302 366.817 203.082C367.003 203.848 367.51 204.415 368.073 204.415C368.635 204.413 368.857 203.85 368.67 203.077ZM365.86 203.082C365.565 201.868 366.098 200.913 367.225 200.91C368.343 200.91 369.329 201.849 369.625 203.077C369.919 204.292 369.394 205.247 368.262 205.247C367.13 205.249 366.158 204.31 365.86 203.082Z" fill="#274179"/>
<path d="M407.806 202.982C407.621 202.223 407.106 201.648 406.55 201.648C405.992 201.648 405.763 202.206 405.952 202.986C406.139 203.752 406.646 204.32 407.208 204.32C407.771 204.317 407.993 203.754 407.806 202.982ZM404.998 202.986C404.704 201.772 405.233 200.817 406.361 200.815C407.479 200.815 408.464 201.753 408.761 202.982C409.055 204.196 408.529 205.151 407.397 205.151C406.265 205.153 405.294 204.214 404.998 202.986Z" fill="#274179"/>
<path d="M413.194 202.972C413.009 202.213 412.493 201.639 411.938 201.639C411.38 201.641 411.151 202.197 411.34 202.977C411.527 203.743 412.034 204.31 412.596 204.31C413.159 204.31 413.38 203.745 413.194 202.972ZM410.383 202.977C410.089 201.763 410.621 200.808 411.749 200.808C412.867 200.805 413.852 201.744 414.148 202.972C414.443 204.186 413.917 205.141 412.785 205.144C411.653 205.144 410.682 204.205 410.383 202.977Z" fill="#274179"/>
<path d="M419.053 202.963C418.869 202.202 418.353 201.63 417.797 201.63C417.239 201.63 417.01 202.188 417.2 202.965C417.386 203.733 417.893 204.301 418.455 204.301C419.018 204.299 419.24 203.736 419.053 202.963ZM416.245 202.968C415.948 201.753 416.481 200.798 417.608 200.796C418.726 200.796 419.711 201.735 420.008 202.961C420.302 204.177 419.777 205.132 418.645 205.132C417.512 205.134 416.541 204.196 416.245 202.968Z" fill="#274179"/>
<path d="M428.622 202.947C428.437 202.188 427.924 201.613 427.366 201.613C426.81 201.613 426.581 202.171 426.77 202.951C426.955 203.717 427.464 204.284 428.026 204.284C428.589 204.282 428.808 203.719 428.622 202.947ZM425.813 202.951C425.519 201.737 426.051 200.782 427.177 200.78C428.297 200.78 429.282 201.718 429.579 202.947C429.873 204.161 429.348 205.116 428.215 205.116C427.083 205.118 426.11 204.179 425.813 202.951Z" fill="#274179"/>
<path d="M431.876 201.749L431.18 201.931L430.804 201.177L431.934 200.815H432.569L433.592 205.036H432.672L431.876 201.749Z" fill="#274179"/>
<path d="M437.987 202.933C437.803 202.171 437.287 201.597 436.731 201.597C436.173 201.599 435.945 202.155 436.134 202.935C436.32 203.701 436.827 204.268 437.39 204.268C437.952 204.268 438.174 203.703 437.987 202.933ZM435.179 202.937C434.885 201.721 435.415 200.766 436.542 200.766C437.66 200.763 438.645 201.702 438.942 202.93C439.236 204.144 438.711 205.099 437.579 205.102C436.446 205.102 435.475 204.163 435.179 202.937Z" fill="#274179"/>
<path d="M447.367 202.907C447.182 202.146 446.669 201.571 446.111 201.571C445.555 201.574 445.326 202.132 445.516 202.909C445.7 203.675 446.207 204.245 446.771 204.242C447.334 204.242 447.553 203.68 447.367 202.907ZM444.558 202.912C444.264 201.695 444.797 200.742 445.922 200.74C447.042 200.738 448.027 201.676 448.324 202.905C448.618 204.121 448.093 205.074 446.961 205.076C445.828 205.078 444.855 204.14 444.558 202.912Z" fill="#274179"/>
<path d="M285.025 212.3C284.84 211.539 284.327 210.965 283.769 210.967C283.213 210.967 282.985 211.525 283.174 212.303C283.358 213.071 283.865 213.638 284.427 213.638C284.992 213.636 285.212 213.073 285.025 212.3ZM282.217 212.305C281.922 211.089 282.455 210.136 283.58 210.134C284.7 210.131 285.683 211.072 285.982 212.298C286.276 213.515 285.749 214.467 284.619 214.47C283.487 214.472 282.513 213.533 282.217 212.305Z" fill="#274179"/>
<path d="M290.655 212.291C290.471 211.53 289.955 210.956 289.399 210.958C288.842 210.958 288.613 211.516 288.802 212.294C288.989 213.062 289.495 213.629 290.058 213.629C290.62 213.627 290.842 213.064 290.655 212.291ZM287.845 212.296C287.551 211.079 288.083 210.127 289.21 210.124C290.328 210.122 291.314 211.063 291.61 212.289C291.904 213.505 291.379 214.458 290.247 214.46C289.115 214.463 288.144 213.524 287.845 212.296Z" fill="#274179"/>
<path d="M430.832 212.072C430.648 211.313 430.132 210.738 429.576 210.738C429.018 210.741 428.79 211.296 428.979 212.076C429.165 212.842 429.672 213.41 430.235 213.41C430.797 213.41 431.019 212.845 430.832 212.072ZM428.022 212.079C427.728 210.862 428.26 209.907 429.387 209.907C430.505 209.905 431.491 210.843 431.787 212.072C432.081 213.286 431.556 214.241 430.424 214.243C429.292 214.243 428.32 213.305 428.022 212.079Z" fill="#274179"/>
<path d="M434.084 210.876L433.388 211.056L433.013 210.302L434.142 209.94H434.777L435.8 214.162L434.88 214.164L434.084 210.876Z" fill="#274179"/>
<path d="M440.196 212.058C440.011 211.297 439.498 210.722 438.94 210.724C438.384 210.724 438.155 211.283 438.345 212.06C438.529 212.826 439.035 213.396 439.598 213.393C440.163 213.393 440.382 212.831 440.196 212.058ZM437.387 212.062C437.093 210.846 437.626 209.893 438.751 209.891C439.871 209.889 440.854 210.827 441.153 212.055C441.447 213.272 440.919 214.225 439.787 214.227C438.657 214.229 437.684 213.288 437.387 212.062Z" fill="#274179"/>
<path d="M460.836 212.013C460.651 211.252 460.136 210.678 459.58 210.678C459.022 210.68 458.793 211.238 458.982 212.016C459.169 212.782 459.676 213.351 460.238 213.349C460.801 213.349 461.023 212.786 460.836 212.013ZM458.028 212.018C457.731 210.802 458.263 209.849 459.391 209.847C460.509 209.844 461.494 210.783 461.791 212.011C462.085 213.228 461.559 214.18 460.427 214.183C459.295 214.185 458.324 213.246 458.028 212.018Z" fill="#274179"/>
<path d="M464.088 210.815L463.392 210.995L463.016 210.241L464.146 209.881L464.781 209.879L465.803 214.101L464.884 214.103L464.088 210.815Z" fill="#274179"/>
<path d="M280.288 261.569C280.104 260.81 279.59 260.236 279.033 260.236C278.477 260.236 278.248 260.794 278.437 261.574C278.622 262.34 279.131 262.907 279.693 262.907C280.256 262.905 280.475 262.342 280.288 261.569ZM277.48 261.574C277.186 260.36 277.718 259.405 278.843 259.402C279.964 259.402 280.949 260.341 281.246 261.569C281.54 262.783 281.014 263.738 279.882 263.738C278.75 263.741 277.777 262.802 277.48 261.574Z" fill="#274179"/>
<path d="M285.919 261.56C285.735 260.798 285.221 260.226 284.663 260.226C284.105 260.226 283.879 260.784 284.065 261.564C284.252 262.33 284.759 262.898 285.321 262.898C285.884 262.895 286.106 262.333 285.919 261.56ZM283.111 261.564C282.817 260.35 283.349 259.395 284.474 259.393C285.595 259.393 286.577 260.331 286.876 261.56C287.17 262.774 286.643 263.729 285.51 263.729C284.378 263.731 283.407 262.793 283.111 261.564Z" fill="#274179"/>
<path d="M289.171 260.362L288.475 260.544L288.099 259.79L289.229 259.428H289.864L290.886 263.65H289.967L289.171 260.362Z" fill="#274179"/>
<path d="M300.913 261.534C300.728 260.775 300.215 260.201 299.657 260.201C299.099 260.203 298.872 260.759 299.059 261.539C299.246 262.305 299.752 262.872 300.315 262.872C300.878 262.872 301.099 262.307 300.913 261.534ZM298.104 261.539C297.81 260.325 298.342 259.37 299.468 259.37C300.588 259.367 301.571 260.306 301.87 261.534C302.164 262.748 301.636 263.703 300.504 263.706C299.372 263.706 298.401 262.767 298.104 261.539Z" fill="#274179"/>
<path d="M306.541 261.525C306.359 260.766 305.843 260.191 305.287 260.191C304.729 260.191 304.501 260.749 304.69 261.529C304.874 262.295 305.383 262.863 305.946 262.863C306.508 262.863 306.728 262.298 306.541 261.525ZM303.733 261.529C303.438 260.315 303.971 259.36 305.096 259.36C306.216 259.358 307.201 260.296 307.498 261.525C307.792 262.739 307.267 263.694 306.135 263.694C305.002 263.696 304.029 262.758 303.733 261.529Z" fill="#274179"/>
<path d="M312.171 261.515C311.987 260.756 311.473 260.182 310.915 260.182C310.358 260.182 310.131 260.74 310.318 261.52C310.505 262.286 311.011 262.853 311.574 262.853C312.136 262.853 312.358 262.288 312.171 261.515ZM309.363 261.52C309.069 260.306 309.601 259.351 310.726 259.351C311.847 259.348 312.83 260.287 313.128 261.515C313.422 262.73 312.895 263.685 311.763 263.685C310.631 263.687 309.66 262.748 309.363 261.52Z" fill="#274179"/>
<path d="M382.45 261.569C382.266 260.81 381.75 260.236 381.194 260.236C380.636 260.236 380.407 260.794 380.597 261.574C380.783 262.34 381.29 262.907 381.852 262.907C382.415 262.905 382.637 262.342 382.45 261.569ZM379.642 261.574C379.345 260.36 379.878 259.405 381.005 259.402C382.123 259.402 383.108 260.341 383.405 261.569C383.699 262.783 383.174 263.738 382.042 263.738C380.909 263.741 379.938 262.802 379.642 261.574Z" fill="#274179"/>
<path d="M388.078 261.56C387.894 260.798 387.38 260.226 386.822 260.226C386.267 260.226 386.038 260.784 386.227 261.564C386.411 262.33 386.918 262.898 387.483 262.898C388.046 262.895 388.265 262.333 388.078 261.56ZM385.27 261.564C384.976 260.35 385.508 259.395 386.633 259.393C387.754 259.393 388.739 260.331 389.035 261.56C389.329 262.774 388.804 263.729 387.672 263.729C386.54 263.731 385.566 262.793 385.27 261.564Z" fill="#274179"/>
<path d="M391.332 260.362L390.637 260.544L390.261 259.79L391.388 259.428H392.026L393.048 263.65H392.126L391.332 260.362Z" fill="#274179"/>
<path d="M420.19 261.569C420.005 260.81 419.492 260.236 418.934 260.236C418.378 260.236 418.15 260.794 418.339 261.574C418.523 262.34 419.03 262.907 419.595 262.907C420.157 262.905 420.377 262.342 420.19 261.569ZM417.382 261.574C417.087 260.36 417.62 259.405 418.745 259.402C419.865 259.402 420.85 260.341 421.147 261.569C421.441 262.783 420.916 263.738 419.784 263.738C418.651 263.741 417.678 262.802 417.382 261.574Z" fill="#274179"/>
<path d="M425.82 261.56C425.636 260.798 425.12 260.226 424.564 260.226C424.006 260.226 423.778 260.784 423.967 261.564C424.154 262.33 424.66 262.898 425.223 262.898C425.785 262.895 426.007 262.333 425.82 261.56ZM423.012 261.564C422.716 260.35 423.248 259.395 424.375 259.393C425.493 259.393 426.478 260.331 426.775 261.56C427.069 262.774 426.544 263.729 425.412 263.729C424.28 263.731 423.309 262.793 423.012 261.564Z" fill="#274179"/>
<path d="M429.072 260.362L428.376 260.544L428.001 259.79L429.13 259.428H429.765L430.788 263.65H429.868L429.072 260.362Z" fill="#274179"/>
<path d="M403.072 261.534C402.887 260.775 402.374 260.201 401.816 260.201C401.26 260.203 401.032 260.759 401.221 261.539C401.405 262.305 401.912 262.872 402.477 262.872C403.039 262.872 403.259 262.307 403.072 261.534ZM400.264 261.539C399.969 260.325 400.502 259.37 401.627 259.37C402.747 259.367 403.733 260.306 404.029 261.534C404.323 262.748 403.798 263.703 402.666 263.706C401.534 263.706 400.56 262.767 400.264 261.539Z" fill="#274179"/>
<path d="M408.702 261.525C408.518 260.766 408.002 260.191 407.446 260.191C406.889 260.191 406.66 260.749 406.849 261.529C407.036 262.295 407.542 262.863 408.105 262.863C408.667 262.863 408.889 262.298 408.702 261.525ZM405.894 261.529C405.598 260.315 406.13 259.36 407.257 259.36C408.376 259.358 409.361 260.296 409.657 261.525C409.954 262.739 409.426 263.694 408.294 263.694C407.162 263.696 406.191 262.758 405.894 261.529Z" fill="#274179"/>
<path d="M414.33 261.515C414.146 260.756 413.632 260.182 413.075 260.182C412.519 260.182 412.29 260.74 412.479 261.52C412.664 262.286 413.17 262.853 413.735 262.853C414.298 262.853 414.517 262.288 414.33 261.515ZM411.522 261.52C411.228 260.306 411.76 259.351 412.885 259.351C414.006 259.348 414.991 260.287 415.287 261.515C415.581 262.73 415.056 263.685 413.924 263.685C412.792 263.687 411.819 262.748 411.522 261.52Z" fill="#274179"/>
<path d="M331.423 261.422C331.238 260.661 330.725 260.086 330.167 260.086C329.611 260.089 329.383 260.647 329.572 261.424C329.756 262.19 330.263 262.76 330.828 262.758C331.39 262.758 331.61 262.192 331.423 261.422ZM328.615 261.427C328.321 260.21 328.853 259.257 329.978 259.255C331.098 259.253 332.083 260.191 332.38 261.42C332.674 262.636 332.149 263.589 331.017 263.591C329.885 263.594 328.911 262.652 328.615 261.427Z" fill="#274179"/>
<path d="M334.677 260.224L333.981 260.404L333.606 259.65L334.735 259.288H335.37L336.393 263.51L335.473 263.512L334.677 260.224Z" fill="#274179"/>
<path d="M340.788 261.406C340.604 260.644 340.088 260.07 339.533 260.072C338.975 260.072 338.748 260.63 338.935 261.408C339.122 262.176 339.628 262.744 340.191 262.744C340.753 262.741 340.975 262.179 340.788 261.406ZM337.98 261.41C337.686 260.194 338.216 259.241 339.343 259.239C340.464 259.236 341.447 260.175 341.743 261.403C342.04 262.62 341.512 263.572 340.38 263.575C339.248 263.577 338.277 262.639 337.98 261.41Z" fill="#274179"/>
<path d="M452.131 261.289C451.947 260.528 451.433 259.953 450.875 259.956C450.32 259.956 450.091 260.514 450.28 261.291C450.464 262.057 450.973 262.627 451.536 262.624C452.098 262.624 452.318 262.062 452.131 261.289ZM449.323 261.293C449.029 260.077 449.561 259.124 450.686 259.122C451.807 259.12 452.792 260.058 453.088 261.286C453.382 262.503 452.857 263.456 451.725 263.458C450.593 263.46 449.619 262.522 449.323 261.293Z" fill="#274179"/>
<path d="M455.385 260.091L454.69 260.271L454.314 259.517L455.444 259.157L456.078 259.155L457.101 263.376L456.181 263.379L455.385 260.091Z" fill="#274179"/>
<path d="M461.497 261.272C461.312 260.511 460.796 259.937 460.241 259.939C459.683 259.939 459.454 260.497 459.643 261.275C459.83 262.043 460.336 262.61 460.899 262.61C461.462 262.608 461.683 262.045 461.497 261.272ZM458.688 261.277C458.394 260.061 458.924 259.108 460.052 259.106C461.17 259.106 462.155 260.044 462.451 261.27C462.746 262.487 462.22 263.439 461.088 263.442C459.956 263.444 458.985 262.505 458.688 261.277Z" fill="#274179"/>
<path d="M244.18 221.783L243.485 221.963L243.109 221.209L244.239 220.847H244.874L245.896 225.068L244.976 225.071L244.18 221.783Z" fill="#274179"/>
<path d="M250.292 222.965C250.107 222.203 249.594 221.629 249.036 221.631C248.48 221.631 248.251 222.189 248.438 222.967C248.625 223.735 249.132 224.302 249.694 224.302C250.257 224.3 250.479 223.737 250.292 222.965ZM247.483 222.969C247.189 221.753 247.722 220.8 248.847 220.798C249.967 220.795 250.95 221.734 251.249 222.962C251.543 224.179 251.015 225.131 249.883 225.134C248.751 225.136 247.78 224.197 247.483 222.969Z" fill="#274179"/>
<path d="M282.175 222.911C281.99 222.15 281.474 221.575 280.919 221.577C280.361 221.577 280.132 222.136 280.321 222.913C280.508 223.681 281.014 224.249 281.577 224.246C282.14 224.246 282.361 223.684 282.175 222.911ZM279.364 222.915C279.07 221.699 279.602 220.746 280.73 220.744C281.848 220.742 282.833 221.68 283.129 222.908C283.424 224.125 282.898 225.078 281.766 225.08C280.634 225.082 279.663 224.144 279.364 222.915Z" fill="#274179"/>
<path d="M287.803 222.901C287.618 222.14 287.105 221.566 286.547 221.568C285.991 221.568 285.763 222.126 285.952 222.904C286.136 223.672 286.643 224.239 287.205 224.239C287.77 224.237 287.99 223.674 287.803 222.901ZM284.995 222.906C284.7 221.69 285.233 220.737 286.358 220.735C287.478 220.732 288.461 221.671 288.76 222.899C289.054 224.116 288.526 225.068 287.394 225.071C286.264 225.073 285.291 224.134 284.995 222.906Z" fill="#274179"/>
<path d="M293.433 222.892C293.249 222.131 292.733 221.556 292.177 221.559C291.619 221.559 291.391 222.117 291.58 222.894C291.767 223.66 292.273 224.23 292.836 224.228C293.398 224.228 293.62 223.665 293.433 222.892ZM290.623 222.897C290.329 221.68 290.861 220.728 291.988 220.725C293.106 220.723 294.092 221.662 294.388 222.89C294.682 224.106 294.157 225.059 293.025 225.061C291.893 225.064 290.921 224.125 290.623 222.897Z" fill="#274179"/>
<path d="M296.685 221.694L295.989 221.874L295.614 221.12L296.743 220.76L297.378 220.758L298.401 224.98L297.481 224.982L296.685 221.694Z" fill="#274179"/>
<path d="M300.45 221.687L299.755 221.869L299.379 221.115L300.509 220.753L301.144 220.751L302.166 224.973L301.246 224.975L300.45 221.687Z" fill="#274179"/>
<path d="M306.562 222.869C306.377 222.11 305.864 221.535 305.306 221.535C304.75 221.535 304.522 222.094 304.708 222.873C304.895 223.639 305.402 224.207 305.964 224.207C306.527 224.204 306.749 223.642 306.562 222.869ZM303.754 222.873C303.459 221.659 303.992 220.704 305.117 220.702C306.237 220.702 307.22 221.641 307.519 222.869C307.813 224.083 307.285 225.038 306.153 225.038C305.023 225.04 304.05 224.102 303.754 222.873Z" fill="#274179"/>
<path d="M452.143 222.633C451.958 221.872 451.445 221.297 450.887 221.3C450.331 221.3 450.103 221.858 450.289 222.635C450.476 223.403 450.983 223.971 451.545 223.969C452.108 223.969 452.33 223.406 452.143 222.633ZM449.335 222.638C449.04 221.421 449.573 220.468 450.698 220.466C451.818 220.464 452.801 221.402 453.1 222.631C453.394 223.847 452.867 224.8 451.734 224.802C450.602 224.804 449.631 223.866 449.335 222.638Z" fill="#D92424"/>
<path d="M457.771 222.624C457.589 221.862 457.073 221.288 456.517 221.29C455.959 221.29 455.731 221.848 455.92 222.626C456.104 223.392 456.613 223.962 457.176 223.959C457.738 223.959 457.958 223.396 457.771 222.624ZM454.963 222.628C454.669 221.412 455.201 220.459 456.326 220.457C457.446 220.454 458.431 221.393 458.728 222.621C459.022 223.838 458.497 224.79 457.365 224.793C456.232 224.795 455.261 223.856 454.963 222.628Z" fill="#D92424"/>
<path d="M463.401 222.614C463.217 221.853 462.704 221.279 462.146 221.279C461.59 221.281 461.361 221.839 461.548 222.617C461.735 223.382 462.241 223.952 462.804 223.95C463.366 223.95 463.588 223.387 463.401 222.614ZM460.593 222.619C460.299 221.402 460.831 220.45 461.957 220.447C463.077 220.445 464.06 221.384 464.359 222.612C464.653 223.828 464.125 224.781 462.993 224.783C461.863 224.786 460.89 223.847 460.593 222.619Z" fill="#274179"/>
<path d="M466.653 221.416L465.96 221.596L465.582 220.842L466.712 220.48H467.349L468.369 224.702L467.449 224.704L466.653 221.416Z" fill="#274179"/>
<path d="M246.746 232.384L246.05 232.564L245.674 231.809L246.804 231.447H247.439L248.462 235.669L247.542 235.672L246.746 232.384Z" fill="#274179"/>
<path d="M252.857 233.565C252.673 232.804 252.159 232.23 251.601 232.232C251.046 232.232 250.817 232.79 251.006 233.568C251.19 234.336 251.697 234.903 252.26 234.901C252.824 234.901 253.044 234.338 252.857 233.565ZM250.049 233.57C249.755 232.354 250.287 231.401 251.412 231.399C252.533 231.396 253.518 232.335 253.814 233.563C254.108 234.78 253.581 235.732 252.451 235.735C251.319 235.737 250.345 234.798 250.049 233.57Z" fill="#274179"/>
<path d="M279.11 233.521C278.925 232.76 278.412 232.185 277.854 232.188C277.298 232.188 277.069 232.746 277.258 233.523C277.443 234.292 277.949 234.859 278.514 234.859C279.077 234.857 279.296 234.294 279.11 233.521ZM276.301 233.526C276.007 232.309 276.539 231.357 277.664 231.354C278.785 231.352 279.77 232.291 280.067 233.519C280.361 234.735 279.836 235.688 278.703 235.69C277.571 235.693 276.598 234.754 276.301 233.526Z" fill="#274179"/>
<path d="M284.74 233.512C284.556 232.75 284.04 232.176 283.484 232.178C282.926 232.178 282.7 232.736 282.887 233.514C283.073 234.282 283.58 234.85 284.143 234.85C284.705 234.847 284.927 234.285 284.74 233.512ZM281.932 233.516C281.638 232.3 282.168 231.347 283.295 231.345C284.416 231.342 285.398 232.281 285.695 233.509C285.991 234.726 285.464 235.679 284.332 235.681C283.199 235.683 282.228 234.745 281.932 233.516Z" fill="#274179"/>
<path d="M263.39 254.034C263.206 253.273 262.692 252.698 262.134 252.698C261.578 252.701 261.35 253.256 261.536 254.036C261.723 254.802 262.23 255.372 262.792 255.37C263.355 255.37 263.577 254.805 263.39 254.034ZM260.582 254.039C260.287 252.822 260.82 251.869 261.945 251.867C263.065 251.865 264.048 252.803 264.347 254.032C264.641 255.246 264.114 256.201 262.981 256.203C261.849 256.203 260.878 255.265 260.582 254.039Z" fill="#D92424"/>
<path d="M266.642 252.836L265.948 253.016L265.57 252.262L266.7 251.9H267.337L268.357 256.121L267.438 256.124L266.642 252.836Z" fill="#D92424"/>
<path d="M249.082 242.259L248.387 242.441L248.011 241.687L249.141 241.325H249.776L250.798 245.546H249.879L249.082 242.259Z" fill="#274179"/>
<path d="M255.194 243.442C255.009 242.681 254.496 242.107 253.938 242.107C253.382 242.109 253.154 242.667 253.343 243.445C253.527 244.211 254.034 244.78 254.596 244.778C255.161 244.778 255.381 244.213 255.194 243.442ZM252.386 243.447C252.092 242.231 252.624 241.278 253.749 241.276C254.869 241.273 255.852 242.212 256.151 243.44C256.445 244.657 255.917 245.609 254.788 245.612C253.656 245.614 252.682 244.673 252.386 243.447Z" fill="#274179"/>
<path d="M260.824 243.433C260.64 242.672 260.124 242.097 259.568 242.097C259.011 242.1 258.782 242.655 258.971 243.435C259.158 244.201 259.664 244.771 260.227 244.769C260.789 244.769 261.011 244.204 260.824 243.433ZM258.014 243.438C257.72 242.221 258.252 241.268 259.379 241.266C260.498 241.264 261.483 242.202 261.779 243.431C262.073 244.647 261.548 245.6 260.416 245.602C259.284 245.602 258.313 244.664 258.014 243.438Z" fill="#274179"/>
<path d="M264.076 242.235L263.381 242.415L263.005 241.661L264.135 241.299H264.769L265.792 245.521L264.872 245.523L264.076 242.235Z" fill="#274179"/>
<path d="M270.188 243.417C270.003 242.656 269.49 242.081 268.932 242.083C268.376 242.083 268.147 242.642 268.336 243.419C268.521 244.185 269.027 244.755 269.592 244.752C270.155 244.752 270.374 244.19 270.188 243.417ZM267.379 243.421C267.085 242.205 267.617 241.252 268.743 241.25C269.863 241.248 270.848 242.186 271.145 243.414C271.439 244.631 270.914 245.584 269.781 245.586C268.649 245.588 267.676 244.65 267.379 243.421Z" fill="#274179"/>
<path d="M275.818 243.407C275.634 242.646 275.118 242.072 274.562 242.072C274.004 242.074 273.775 242.632 273.965 243.41C274.151 244.176 274.658 244.745 275.221 244.743C275.783 244.743 276.005 244.18 275.818 243.407ZM273.007 243.412C272.713 242.196 273.246 241.243 274.373 241.241C275.491 241.238 276.476 242.177 276.773 243.405C277.067 244.622 276.542 245.574 275.41 245.577C274.277 245.579 273.306 244.64 273.007 243.412Z" fill="#274179"/>
<path d="M281.446 243.398C281.262 242.637 280.748 242.062 280.19 242.062C279.635 242.065 279.406 242.623 279.595 243.4C279.78 244.166 280.286 244.736 280.851 244.734C281.414 244.734 281.633 244.171 281.446 243.398ZM278.638 243.403C278.344 242.186 278.876 241.233 280.001 241.231C281.122 241.229 282.107 242.167 282.403 243.396C282.698 244.612 282.172 245.565 281.04 245.567C279.908 245.57 278.934 244.631 278.638 243.403Z" fill="#274179"/>
<path d="M287.077 243.389C286.892 242.628 286.376 242.053 285.821 242.053C285.263 242.056 285.037 242.614 285.223 243.391C285.41 244.157 285.917 244.727 286.479 244.724C287.042 244.724 287.263 244.159 287.077 243.389ZM284.269 243.393C283.974 242.177 284.504 241.224 285.632 241.222C286.75 241.22 287.735 242.158 288.031 243.386C288.328 244.603 287.8 245.556 286.668 245.558C285.536 245.56 284.565 244.619 284.269 243.393Z" fill="#274179"/>
<path d="M292.705 243.379C292.521 242.618 292.007 242.044 291.449 242.044C290.894 242.046 290.665 242.602 290.854 243.382C291.038 244.148 291.545 244.717 292.11 244.715C292.672 244.715 292.892 244.15 292.705 243.379ZM289.897 243.384C289.603 242.168 290.135 241.215 291.26 241.212C292.381 241.21 293.366 242.149 293.662 243.377C293.956 244.591 293.431 245.546 292.299 245.549C291.167 245.551 290.193 244.61 289.897 243.384Z" fill="#274179"/>
<path d="M298.335 243.37C298.151 242.609 297.635 242.034 297.08 242.034C296.522 242.037 296.295 242.592 296.482 243.372C296.669 244.138 297.175 244.708 297.738 244.706C298.3 244.706 298.522 244.141 298.335 243.37ZM295.527 243.375C295.233 242.158 295.765 241.205 296.89 241.203C298.011 241.201 298.994 242.139 299.29 243.368C299.587 244.582 299.059 245.537 297.927 245.539C296.795 245.539 295.824 244.601 295.527 243.375Z" fill="#274179"/>
<path d="M301.587 242.172L300.892 242.352L300.516 241.598L301.646 241.236H302.281L303.303 245.458L302.383 245.46L301.587 242.172Z" fill="#274179"/>
<path d="M305.353 242.165L304.657 242.345L304.281 241.591L305.411 241.231L306.046 241.229L307.068 245.451L306.149 245.453L305.353 242.165Z" fill="#274179"/>
<path d="M311.464 243.347C311.28 242.586 310.766 242.011 310.208 242.013C309.653 242.013 309.424 242.572 309.613 243.349C309.797 244.117 310.304 244.685 310.869 244.685C311.431 244.682 311.651 244.12 311.464 243.347ZM308.656 243.351C308.362 242.135 308.894 241.182 310.019 241.18C311.14 241.178 312.125 242.119 312.421 243.344C312.715 244.561 312.19 245.514 311.058 245.516C309.926 245.518 308.952 244.58 308.656 243.351Z" fill="#274179"/>
<path d="M251.648 252.859L250.955 253.042L250.576 252.287L251.706 251.925H252.344L253.364 256.147H252.444L251.648 252.859Z" fill="#274179"/>
<path d="M257.759 254.043C257.575 253.282 257.061 252.708 256.506 252.708C255.948 252.71 255.719 253.268 255.908 254.046C256.093 254.812 256.602 255.381 257.164 255.379C257.727 255.379 257.946 254.814 257.759 254.043ZM254.951 254.048C254.657 252.831 255.189 251.879 256.314 251.876C257.435 251.874 258.42 252.813 258.716 254.041C259.011 255.258 258.485 256.21 257.353 256.213C256.221 256.215 255.25 255.274 254.951 254.048Z" fill="#274179"/>
<path d="M272.753 254.018C272.571 253.256 272.055 252.682 271.499 252.682C270.942 252.684 270.713 253.242 270.902 254.02C271.086 254.786 271.595 255.356 272.158 255.353C272.72 255.353 272.942 254.791 272.753 254.018ZM269.945 254.022C269.651 252.806 270.183 251.853 271.308 251.851C272.429 251.848 273.414 252.787 273.71 254.015C274.004 255.232 273.479 256.185 272.347 256.187C271.215 256.189 270.244 255.251 269.945 254.022Z" fill="#274179"/>
<path d="M278.384 254.008C278.199 253.247 277.686 252.673 277.128 252.673C276.572 252.675 276.343 253.233 276.53 254.011C276.717 254.777 277.223 255.346 277.786 255.344C278.349 255.344 278.57 254.781 278.384 254.008ZM275.575 254.013C275.281 252.796 275.813 251.844 276.939 251.841C278.059 251.839 279.042 252.778 279.341 254.006C279.635 255.222 279.107 256.175 277.975 256.177C276.843 256.18 275.872 255.239 275.575 254.013Z" fill="#274179"/>
<path d="M268.367 277.538C268.185 276.777 267.669 276.203 267.113 276.205C266.555 276.205 266.327 276.763 266.516 277.541C266.7 278.309 267.209 278.876 267.772 278.876C268.334 278.874 268.556 278.311 268.367 277.538ZM265.559 277.543C265.264 276.326 265.797 275.374 266.922 275.371C268.042 275.369 269.027 276.308 269.324 277.536C269.618 278.752 269.093 279.705 267.961 279.707C266.828 279.71 265.857 278.771 265.559 277.543Z" fill="#274179"/>
<path d="M271.621 276.34L270.925 276.52L270.549 275.766L271.679 275.406L272.314 275.404L273.337 279.625L272.417 279.628L271.621 276.34Z" fill="#274179"/>
<path d="M256.627 276.366L255.932 276.546L255.556 275.792L256.686 275.43H257.321L258.343 279.651L257.423 279.654L256.627 276.366Z" fill="#274179"/>
<path d="M262.739 277.547C262.554 276.786 262.041 276.212 261.483 276.214C260.925 276.214 260.698 276.772 260.885 277.55C261.072 278.318 261.578 278.885 262.141 278.885C262.704 278.883 262.925 278.32 262.739 277.547ZM259.93 277.552C259.636 276.336 260.168 275.383 261.294 275.38C262.414 275.378 263.397 276.319 263.696 277.545C263.99 278.762 263.462 279.714 262.33 279.717C261.198 279.719 260.227 278.78 259.93 277.552Z" fill="#274179"/>
<path d="M277.732 277.522C277.548 276.761 277.034 276.186 276.476 276.188C275.918 276.188 275.692 276.747 275.879 277.524C276.066 278.292 276.572 278.86 277.135 278.86C277.697 278.857 277.919 278.295 277.732 277.522ZM274.924 277.526C274.63 276.31 275.162 275.357 276.287 275.355C277.408 275.355 278.391 276.294 278.689 277.519C278.983 278.736 278.456 279.689 277.324 279.691C276.192 279.693 275.22 278.755 274.924 277.526Z" fill="#D92424"/>
<path d="M283.361 277.512C283.178 276.751 282.663 276.177 282.107 276.179C281.549 276.179 281.32 276.737 281.509 277.515C281.694 278.283 282.203 278.85 282.765 278.85C283.328 278.848 283.55 278.285 283.361 277.512ZM280.552 277.517C280.258 276.301 280.79 275.348 281.916 275.345C283.036 275.345 284.021 276.284 284.318 277.51C284.612 278.727 284.086 279.679 282.954 279.682C281.822 279.684 280.851 278.745 280.552 277.517Z" fill="#D92424"/>
<path d="M261.413 285.099C261.228 284.338 260.712 283.763 260.157 283.766C259.599 283.766 259.37 284.324 259.559 285.101C259.746 285.869 260.252 286.437 260.815 286.437C261.378 286.434 261.599 285.872 261.413 285.099ZM258.604 285.104C258.308 283.887 258.84 282.934 259.968 282.932C261.086 282.93 262.071 283.868 262.367 285.097C262.662 286.313 262.136 287.266 261.004 287.268C259.872 287.27 258.901 286.332 258.604 285.104Z" fill="#274179"/>
<path d="M264.664 283.901L263.969 284.083L263.593 283.327L264.723 282.967L265.358 282.965L266.38 287.186L265.46 287.189L264.664 283.901Z" fill="#274179"/>
<path d="M270.776 285.082C270.591 284.321 270.078 283.749 269.52 283.749C268.964 283.749 268.736 284.307 268.925 285.087C269.109 285.853 269.616 286.42 270.181 286.42C270.743 286.418 270.963 285.855 270.776 285.082ZM267.968 285.087C267.673 283.873 268.206 282.918 269.331 282.916C270.451 282.916 271.436 283.854 271.733 285.082C272.027 286.297 271.502 287.252 270.37 287.252C269.237 287.254 268.264 286.315 267.968 285.087Z" fill="#274179"/>
<path d="M276.406 285.073C276.222 284.312 275.706 283.738 275.151 283.74C274.593 283.74 274.364 284.298 274.553 285.076C274.74 285.844 275.246 286.411 275.809 286.411C276.371 286.409 276.593 285.846 276.406 285.073ZM273.598 285.078C273.302 283.861 273.834 282.909 274.961 282.906C276.08 282.904 277.065 283.845 277.361 285.071C277.655 286.287 277.13 287.24 275.998 287.242C274.866 287.245 273.895 286.306 273.598 285.078Z" fill="#274179"/>
<path d="M284.012 253.999C283.83 253.238 283.314 252.663 282.758 252.663C282.2 252.666 281.972 253.224 282.161 254.001C282.345 254.767 282.854 255.337 283.416 255.335C283.979 255.335 284.201 254.77 284.012 253.999ZM281.204 254.004C280.909 252.787 281.442 251.834 282.569 251.832C283.687 251.83 284.672 252.768 284.969 253.997C285.263 255.213 284.738 256.166 283.606 256.168C282.473 256.171 281.502 255.23 281.204 254.004Z" fill="#274179"/>
<path d="M289.642 253.99C289.458 253.228 288.944 252.654 288.386 252.654C287.831 252.656 287.602 253.212 287.791 253.992C287.975 254.758 288.482 255.328 289.045 255.325C289.607 255.325 289.829 254.76 289.642 253.99ZM286.834 253.994C286.54 252.778 287.072 251.825 288.197 251.823C289.318 251.82 290.3 252.759 290.599 253.987C290.893 255.204 290.366 256.156 289.234 256.159C288.104 256.159 287.13 255.22 286.834 253.994Z" fill="#274179"/>
<path d="M275.517 304.888C275.332 304.127 274.819 303.552 274.261 303.555C273.705 303.555 273.477 304.113 273.666 304.89C273.85 305.658 274.357 306.226 274.919 306.226C275.484 306.224 275.704 305.661 275.517 304.888ZM272.709 304.893C272.414 303.676 272.947 302.723 274.072 302.721C275.192 302.719 276.175 303.657 276.474 304.886C276.768 306.102 276.241 307.055 275.111 307.057C273.978 307.06 273.005 306.121 272.709 304.893Z" fill="#D92424"/>
<path d="M278.771 303.69L278.075 303.87L277.7 303.116L278.827 302.756L279.464 302.754L280.487 306.975L279.565 306.978L278.771 303.69Z" fill="#D92424"/>
<path d="M261.21 293.115L260.516 293.295L260.138 292.541L261.268 292.179H261.905L262.925 296.4L262.006 296.403L261.21 293.115Z" fill="#274179"/>
<path d="M267.321 294.296C267.137 293.535 266.623 292.961 266.065 292.963C265.51 292.963 265.281 293.521 265.47 294.299C265.654 295.067 266.161 295.634 266.726 295.634C267.288 295.632 267.508 295.069 267.321 294.296ZM264.513 294.301C264.219 293.084 264.751 292.132 265.876 292.129C266.996 292.127 267.982 293.068 268.278 294.294C268.572 295.51 268.047 296.463 266.915 296.465C265.783 296.468 264.809 295.529 264.513 294.301Z" fill="#274179"/>
<path d="M272.951 294.287C272.767 293.526 272.253 292.951 271.696 292.954C271.138 292.954 270.911 293.512 271.098 294.289C271.285 295.057 271.791 295.625 272.354 295.625C272.916 295.623 273.138 295.06 272.951 294.287ZM270.143 294.292C269.849 293.075 270.381 292.122 271.506 292.12C272.627 292.118 273.61 293.056 273.909 294.285C274.203 295.501 273.675 296.454 272.543 296.456C271.411 296.459 270.44 295.52 270.143 294.292Z" fill="#274179"/>
<path d="M276.203 293.089L275.51 293.269L275.132 292.515L276.262 292.155L276.899 292.153L277.919 296.375L276.999 296.377L276.203 293.089Z" fill="#274179"/>
<path d="M263.777 303.716L263.082 303.896L262.706 303.141L263.833 302.779H264.471L265.493 307.001L264.571 307.003L263.777 303.716Z" fill="#274179"/>
<path d="M269.889 304.897C269.704 304.136 269.188 303.562 268.633 303.564C268.075 303.564 267.846 304.122 268.035 304.9C268.222 305.668 268.729 306.235 269.291 306.235C269.854 306.233 270.075 305.67 269.889 304.897ZM267.078 304.902C266.784 303.685 267.316 302.733 268.444 302.73C269.562 302.728 270.547 303.667 270.843 304.895C271.138 306.111 270.612 307.064 269.48 307.066C268.348 307.069 267.377 306.13 267.078 304.902Z" fill="#274179"/>
<path d="M284.882 304.872C284.698 304.11 284.182 303.536 283.627 303.538C283.069 303.538 282.84 304.096 283.029 304.874C283.216 305.642 283.722 306.21 284.285 306.21C284.847 306.207 285.069 305.645 284.882 304.872ZM282.072 304.876C281.778 303.66 282.31 302.707 283.437 302.705C284.556 302.705 285.541 303.643 285.837 304.869C286.131 306.086 285.606 307.038 284.474 307.041C283.342 307.043 282.371 306.105 282.072 304.876Z" fill="#274179"/>
<path d="M290.511 304.862C290.326 304.101 289.813 303.527 289.255 303.529C288.699 303.529 288.47 304.087 288.66 304.865C288.844 305.633 289.35 306.2 289.913 306.2C290.478 306.198 290.697 305.635 290.511 304.862ZM287.702 304.867C287.408 303.65 287.941 302.698 289.066 302.695C290.186 302.693 291.169 303.634 291.468 304.86C291.762 306.076 291.234 307.029 290.104 307.031C288.972 307.034 287.999 306.095 287.702 304.867Z" fill="#274179"/>
<path d="M277.688 312.372C277.503 311.613 276.99 311.038 276.432 311.038C275.876 311.038 275.648 311.596 275.837 312.376C276.021 313.142 276.528 313.71 277.09 313.71C277.655 313.707 277.875 313.145 277.688 312.372ZM274.88 312.376C274.586 311.162 275.118 310.207 276.243 310.205C277.363 310.205 278.346 311.143 278.645 312.372C278.939 313.586 278.412 314.541 277.279 314.541C276.15 314.543 275.176 313.605 274.88 312.376Z" fill="#D92424"/>
<path d="M280.94 311.174L280.246 311.356L279.868 310.602L280.998 310.24H281.635L282.655 314.461H281.736L280.94 311.174Z" fill="#D92424"/>
<path d="M272.057 312.381C271.875 311.622 271.359 311.048 270.804 311.048C270.246 311.048 270.017 311.606 270.206 312.386C270.391 313.151 270.9 313.719 271.462 313.719C272.025 313.717 272.246 313.154 272.057 312.381ZM269.249 312.386C268.955 311.171 269.487 310.216 270.612 310.214C271.733 310.214 272.718 311.153 273.015 312.381C273.309 313.595 272.783 314.55 271.651 314.55C270.519 314.553 269.548 313.614 269.249 312.386Z" fill="#274179"/>
<path d="M287.053 312.355C286.869 311.596 286.353 311.022 285.798 311.022C285.24 311.024 285.011 311.58 285.2 312.36C285.387 313.126 285.893 313.696 286.456 313.693C287.018 313.693 287.24 313.128 287.053 312.355ZM284.243 312.362C283.949 311.146 284.481 310.193 285.608 310.191C286.727 310.188 287.712 311.127 288.008 312.355C288.302 313.57 287.777 314.525 286.645 314.527C285.513 314.527 284.542 313.588 284.243 312.362Z" fill="#274179"/>
<path d="M292.682 312.346C292.497 311.587 291.984 311.013 291.426 311.013C290.87 311.015 290.641 311.571 290.828 312.351C291.015 313.116 291.521 313.684 292.084 313.684C292.649 313.684 292.868 313.119 292.682 312.346ZM289.873 312.351C289.579 311.136 290.111 310.181 291.237 310.181C292.357 310.179 293.34 311.118 293.639 312.346C293.933 313.56 293.405 314.515 292.273 314.515C291.143 314.517 290.17 313.579 289.873 312.351Z" fill="#274179"/>
<path d="M296.141 304.853C295.957 304.092 295.441 303.517 294.885 303.52C294.327 303.52 294.099 304.078 294.288 304.855C294.474 305.623 294.981 306.191 295.544 306.191C296.106 306.189 296.328 305.626 296.141 304.853ZM293.333 304.858C293.036 303.641 293.569 302.688 294.696 302.686C295.814 302.684 296.799 303.625 297.096 304.851C297.39 306.067 296.865 307.02 295.733 307.022C294.6 307.024 293.629 306.086 293.333 304.858Z" fill="#274179"/>
<path d="M301.769 304.844C301.585 304.082 301.071 303.508 300.513 303.51C299.958 303.51 299.729 304.068 299.918 304.846C300.103 305.614 300.609 306.182 301.174 306.182C301.737 306.179 301.956 305.616 301.769 304.844ZM298.961 304.848C298.667 303.632 299.199 302.679 300.324 302.677C301.445 302.674 302.43 303.613 302.726 304.841C303.021 306.058 302.495 307.01 301.363 307.013C300.231 307.015 299.258 306.076 298.961 304.848Z" fill="#274179"/>
<path d="M448.597 232.052L447.901 232.232L447.525 231.478L448.655 231.116H449.29L450.312 235.338L449.393 235.34L448.597 232.052Z" fill="#274179"/>
<path d="M454.708 233.234C454.524 232.473 454.01 231.898 453.452 231.9C452.897 231.9 452.668 232.459 452.857 233.236C453.042 234.002 453.548 234.572 454.111 234.569C454.676 234.569 454.895 234.007 454.708 233.234ZM451.9 233.238C451.606 232.022 452.138 231.069 453.263 231.067C454.384 231.065 455.369 232.003 455.666 233.231C455.96 234.448 455.432 235.401 454.302 235.403C453.17 235.405 452.196 234.467 451.9 233.238Z" fill="#274179"/>
<path d="M460.339 233.225C460.154 232.463 459.639 231.889 459.083 231.891C458.525 231.891 458.296 232.449 458.485 233.227C458.672 233.993 459.179 234.562 459.741 234.56C460.304 234.56 460.526 233.997 460.339 233.225ZM457.528 233.229C457.234 232.013 457.766 231.06 458.894 231.058C460.012 231.055 460.997 231.994 461.294 233.222C461.588 234.439 461.063 235.391 459.93 235.394C458.798 235.396 457.827 234.457 457.528 233.229Z" fill="#274179"/>
<path d="M465.967 233.215C465.783 232.454 465.269 231.88 464.711 231.88C464.156 231.882 463.927 232.44 464.116 233.217C464.3 233.983 464.807 234.553 465.372 234.551C465.934 234.551 466.154 233.986 465.967 233.215ZM463.159 233.22C462.865 232.003 463.397 231.051 464.522 231.048C465.643 231.046 466.628 231.985 466.924 233.213C467.218 234.429 466.693 235.382 465.561 235.384C464.429 235.387 463.455 234.446 463.159 233.22Z" fill="#274179"/>
<path d="M469.221 232.017L468.525 232.197L468.15 231.443L469.279 231.081H469.914L470.937 235.303L470.017 235.305L469.221 232.017Z" fill="#274179"/>
<path d="M445.345 243.358C445.161 242.6 444.645 242.025 444.089 242.025C443.531 242.027 443.302 242.583 443.492 243.363C443.678 244.129 444.185 244.699 444.747 244.696C445.31 244.696 445.532 244.131 445.345 243.358ZM442.537 243.365C442.24 242.149 442.773 241.196 443.9 241.194C445.018 241.192 446.003 242.13 446.3 243.358C446.594 244.573 446.069 245.528 444.937 245.53C443.804 245.53 442.833 244.591 442.537 243.365Z" fill="#274179"/>
<path d="M448.597 242.161L447.901 242.343L447.525 241.589L448.655 241.227H449.29L450.312 245.448L449.393 245.451L448.597 242.161Z" fill="#274179"/>
<path d="M454.708 243.344C454.524 242.583 454.01 242.009 453.452 242.009C452.897 242.011 452.668 242.569 452.857 243.347C453.042 244.113 453.548 244.682 454.111 244.68C454.676 244.68 454.895 244.115 454.708 243.344ZM451.9 243.349C451.606 242.132 452.138 241.18 453.263 241.177C454.384 241.175 455.369 242.114 455.666 243.342C455.96 244.559 455.432 245.511 454.302 245.514C453.17 245.516 452.196 244.575 451.9 243.349Z" fill="#D92424"/>
<path d="M460.339 243.335C460.154 242.574 459.639 241.999 459.083 241.999C458.525 242.002 458.296 242.557 458.485 243.337C458.672 244.103 459.179 244.673 459.741 244.671C460.304 244.671 460.526 244.106 460.339 243.335ZM457.528 243.34C457.234 242.123 457.766 241.17 458.894 241.168C460.012 241.166 460.997 242.104 461.294 243.333C461.588 244.549 461.063 245.502 459.93 245.504C458.798 245.507 457.827 244.566 457.528 243.34Z" fill="#D92424"/>
<path d="M465.967 243.326C465.783 242.564 465.269 241.99 464.711 241.99C464.156 241.992 463.927 242.548 464.116 243.328C464.3 244.094 464.807 244.664 465.372 244.661C465.934 244.661 466.154 244.096 465.967 243.326ZM463.159 243.33C462.865 242.114 463.397 241.161 464.522 241.159C465.643 241.157 466.628 242.095 466.924 243.323C467.218 244.54 466.693 245.493 465.561 245.495C464.429 245.497 463.455 244.556 463.159 243.33Z" fill="#D92424"/>
<path d="M469.221 242.128L468.525 242.308L468.15 241.554L469.279 241.192H469.914L470.937 245.413L470.017 245.416L469.221 242.128Z" fill="#D92424"/>
<path d="M468.075 300.545L467.382 300.725L467.003 299.97L468.133 299.608H468.77L469.79 303.83L468.871 303.833L468.075 300.545Z" fill="#274179"/>
<path d="M474.186 301.726C474.004 300.965 473.488 300.391 472.933 300.393C472.375 300.393 472.146 300.951 472.335 301.729C472.52 302.497 473.028 303.064 473.591 303.064C474.154 303.062 474.375 302.499 474.186 301.726ZM471.378 301.731C471.084 300.514 471.616 299.562 472.741 299.559C473.862 299.557 474.847 300.496 475.143 301.724C475.438 302.941 474.912 303.893 473.78 303.896C472.648 303.898 471.677 302.959 471.378 301.731Z" fill="#274179"/>
<path d="M479.817 301.717C479.632 300.956 479.119 300.381 478.561 300.384C478.005 300.384 477.777 300.942 477.963 301.719C478.15 302.485 478.657 303.055 479.219 303.053C479.782 303.053 480.004 302.49 479.817 301.717ZM477.009 301.722C476.714 300.505 477.247 299.553 478.372 299.55C479.492 299.548 480.475 300.486 480.774 301.715C481.068 302.931 480.541 303.884 479.408 303.886C478.276 303.889 477.305 302.95 477.009 301.722Z" fill="#274179"/>
<path d="M462.545 307.417L461.849 307.597L461.473 306.842L462.603 306.483L463.238 306.48L464.26 310.702L463.341 310.704L462.545 307.417Z" fill="#274179"/>
<path d="M468.656 308.598C468.472 307.837 467.958 307.263 467.4 307.265C466.845 307.265 466.616 307.823 466.805 308.601C466.989 309.369 467.496 309.936 468.059 309.936C468.624 309.934 468.843 309.371 468.656 308.598ZM465.848 308.603C465.554 307.386 466.086 306.434 467.211 306.431C468.332 306.429 469.315 307.37 469.613 308.596C469.907 309.813 469.38 310.765 468.248 310.768C467.118 310.77 466.144 309.831 465.848 308.603Z" fill="#274179"/>
<path d="M474.287 308.589C474.102 307.828 473.586 307.253 473.031 307.256C472.473 307.256 472.244 307.814 472.433 308.591C472.62 309.359 473.126 309.927 473.689 309.927C474.252 309.925 474.473 309.362 474.287 308.589ZM471.476 308.594C471.182 307.377 471.714 306.424 472.842 306.422C473.96 306.42 474.945 307.361 475.241 308.587C475.535 309.803 475.01 310.756 473.878 310.758C472.746 310.761 471.775 309.822 471.476 308.594Z" fill="#274179"/>
<path d="M485.445 301.708C485.263 300.946 484.747 300.372 484.191 300.372C483.633 300.374 483.405 300.932 483.594 301.71C483.781 302.476 484.287 303.046 484.85 303.043C485.412 303.043 485.634 302.48 485.445 301.708ZM482.637 301.712C482.343 300.496 482.875 299.543 484.002 299.541C485.12 299.538 486.106 300.477 486.402 301.705C486.696 302.922 486.171 303.874 485.039 303.877C483.907 303.879 482.935 302.94 482.637 301.712Z" fill="#274179"/>
<path d="M488.699 300.51L488.003 300.69L487.628 299.935L488.757 299.573H489.392L490.415 303.795L489.495 303.797L488.699 300.51Z" fill="#274179"/>
<path d="M564.608 252.96C566.7 252.764 571.509 253.326 574.648 257.613C577.788 261.901 575.615 266.956 583.465 270.851C591.316 274.745 590.188 279.658 588.617 285.82C587.049 291.982 580.466 299.431 572.615 299.067C564.765 298.705 551.339 282.537 551.823 277.115C552.306 271.696 554.638 271.047 552.789 267.463C549.89 261.847 555.264 253.847 564.608 252.96Z" fill="#213858"/>
<path d="M567.671 278.675C567.711 278.619 567.732 278.586 567.727 278.584C566.859 278.274 566.784 277.003 567.589 271.717L567.171 271.736L560.164 272.072C560.164 272.072 560 274.236 559.704 276.256C559.645 276.658 559.582 277.055 559.512 277.426C554.239 282.68 565.591 285.054 567.671 278.675Z" fill="#FFB27D"/>
<path d="M553.347 420.912H568.488C568.488 420.912 568.852 418.605 568.061 416.854C567.302 415.172 566.123 414.136 566.016 412.849C565.054 413.839 563.871 414.477 561.681 414.182C561.412 414.617 559.949 416.945 559.055 417.589C558.065 418.299 553.653 418.047 553.347 420.912Z" fill="#445B93"/>
<path d="M571.119 359.004C569.709 362.485 568.624 365.649 568.964 368.44L568.967 368.456C569.006 368.764 569.062 369.065 569.137 369.367C574.105 389.238 567.062 415.114 567.062 415.114C567.062 415.114 565.201 415.546 563.854 415.665C561.466 415.878 561.118 415.168 561.118 415.168C561.118 415.168 558.749 394.066 551.078 353.727C549.972 347.901 549.535 344.676 549.136 339.497C549.015 337.947 548.9 336.221 548.772 334.199C548.424 328.763 549.248 319.612 553.326 317.21C555.182 316.112 557.708 316.414 561.105 319.089C561.373 319.302 561.627 319.554 561.926 319.769C582.789 334.79 575.431 348.38 571.119 359.004Z" fill="#2F539B"/>
<path d="M568.964 368.44C568.731 367.622 561.226 341.398 561.1 339.406C560.827 335.122 570.745 346.953 571.119 359.004C569.709 362.485 568.623 365.649 568.964 368.44Z" fill="#625423"/>
<path d="M622.057 389.039L615.754 375.267C615.754 375.267 613.506 375.898 612.244 377.345C611.032 378.735 610.154 378.487 607.393 376.57C608.431 378.177 608.572 379.122 609.216 381.238C609.722 381.299 612.61 384.094 615.568 384.864C616.747 385.17 619.324 389.954 622.057 389.039Z" fill="#445B93"/>
<path d="M555.987 323.253C555.987 323.253 569.555 370.431 574.527 373.469C579.497 376.505 604.078 382.545 611.336 383.995C611.336 383.995 611.595 382.032 611.214 380.049C611.13 379.608 610.381 378.025 610.381 378.025C610.381 378.025 597.474 365.108 584.861 363.298C582.221 362.92 585.921 321.665 568.005 320.049C551.641 318.571 555.987 323.253 555.987 323.253Z" fill="#2F539B"/>
<path d="M535.874 249.007C535.874 249.007 536.178 247.496 536.521 246.34C536.67 245.831 535.618 242.476 534.889 242.062C534.161 241.652 532.263 243.909 532.8 245.644C533.076 246.534 533.528 249.434 533.528 249.434L535.874 249.007Z" fill="#FFB27D"/>
<path d="M598.524 251.811C598.615 252.003 598.746 252.346 598.861 252.668C598.863 252.579 598.863 252.493 598.865 252.409C598.87 251.767 601.265 248.278 602.248 248.059C603.233 247.841 604.622 251.111 603.392 252.916C602.761 253.845 600.854 257.154 600.854 257.154L598.742 255.876C598.742 255.876 598.728 254.987 598.158 254.265C597.871 253.901 597.861 252.189 597.759 251.444C597.759 251.444 598.181 251.106 598.524 251.811Z" fill="#FFB27D"/>
<path d="M560.164 272.072C560.164 272.072 560 274.236 559.704 276.256C563.53 276.716 566.06 273.541 567.171 271.736L560.164 272.072Z" fill="#ED975D"/>
<path d="M568.486 270.851C568.486 270.851 571.165 267.745 572.123 264.892C572.804 262.856 572.893 254.94 564.933 254.898C564.933 254.898 562.638 254.783 560.297 255.904C558.434 256.796 555.626 258.9 557.348 266.076L557.717 268.467L568.486 270.851Z" fill="#213858"/>
<path d="M558.298 273.779C558.298 273.779 568.065 275.397 568.98 269.296C569.893 263.197 571.77 259.297 565.572 258.006C559.375 256.714 557.811 258.86 557.012 260.822C556.212 262.783 555.78 273.2 558.298 273.779Z" fill="#FFB27D"/>
<path d="M560.157 257.154C560.157 257.154 562.752 264.749 566.709 266.419C570.666 268.091 572.615 267.252 572.615 267.252C572.615 267.252 569.83 264.275 569.828 259.801C569.828 259.801 562.685 254.048 560.157 257.154Z" fill="#213858"/>
<path d="M561.714 257.873C561.714 257.873 559.914 258.347 558.315 260.28C557.264 261.548 556.895 263.311 556.424 265.053C556.424 265.053 555.128 259.888 557.806 257.473C560.647 254.912 561.714 257.873 561.714 257.873Z" fill="#213858"/>
<path d="M601.244 257.182C601.244 257.182 599.099 274.706 594.575 278.895C591.435 281.802 580.323 286.493 577.669 290.815C577.352 291.331 576.964 292.793 576.661 294.962C575.762 301.315 575.54 313.721 579.677 326.178C579.868 326.755 580.069 327.332 580.281 327.909C580.844 329.447 580.085 331.152 578.542 331.701C576.598 332.394 573.738 333.263 570.358 333.842C569.716 333.954 569.051 334.052 568.376 334.138C559.055 335.322 552.747 333.134 549.542 331.516C548.03 330.753 547.114 329.163 547.208 327.47C547.399 324.012 549.131 320.591 549.911 312.276C550.502 305.967 546.197 297.07 546.428 293.713C546.519 292.386 547.175 286.493 546.508 285.58C542.075 279.49 534.619 273.657 533.472 268.098C532.151 261.686 533.005 248.895 533.005 248.895C533.372 248.766 534.369 248.372 535.076 248.372C536.332 248.369 537.217 249.527 537.217 249.527C537.217 249.527 540.543 261.989 540.711 262.828C541.596 267.297 550.095 273.774 552.668 275.072C555.488 276.499 557.74 277.263 559.515 277.428C559.515 277.428 557.418 281.05 560.518 281.552C564.251 282.157 567.134 277.865 567.134 277.865C567.134 277.865 569.401 278.502 573.483 277.9C576.871 277.403 588.928 273.326 590.669 270.232C591.939 267.981 598.632 255.503 598.632 255.503C598.632 255.503 599.253 255.141 600.252 255.661C601.239 256.175 601.244 257.182 601.244 257.182Z" fill="#AEC3FF"/>
<path d="M561.135 270.465C561.135 270.465 560.717 271.308 560.154 271.325C559.594 271.339 558.165 271.203 558.067 271.059C557.972 270.914 557.733 270.031 557.733 270.031C557.733 270.031 560.096 269.938 561.135 270.465Z" fill="white"/>
<path d="M579.677 326.178C579.677 326.178 571.292 324.74 570.736 318.772C570.143 312.411 576.654 294.95 576.654 294.95L576.661 294.962C575.762 301.315 575.54 313.721 579.677 326.178Z" fill="#274179"/>
<path d="M559.242 179.3L558.368 176.094C557.43 172.657 554.5 170.133 550.964 169.715L528.178 167.023L526.469 181.486L519.179 243.232L613.441 254.368L620.731 192.624L567.391 186.321C563.497 185.861 560.273 183.083 559.242 179.3Z" fill="#D92424"/>
<path d="M536.923 215.047L537.572 209.552L557.832 203.388L557.169 209.001L543.062 212.945L555.861 220.069L555.189 225.762L536.923 215.047Z" fill="white"/>
<path d="M578.624 199.185L583.759 199.792L561.774 234.572L556.641 233.965L578.624 199.185Z" fill="white"/>
<path d="M603.396 217.33L602.747 222.822L582.49 228.986L583.153 223.373L597.257 219.429L584.46 212.307L585.132 206.615L603.396 217.33Z" fill="white"/>
<path d="M597.994 253.798C597.994 253.798 597.717 251.37 597.474 250.917C597.234 250.464 597.836 250.333 598.349 251.37C598.865 252.409 599.89 252.096 600.403 253.123C600.917 254.149 600.464 254.422 599.829 254.361C599.197 254.3 597.994 253.798 597.994 253.798Z" fill="#FFB27D"/>
<path d="M536.045 248.22C536.045 248.22 537.427 246.723 537.42 246.055C537.413 245.385 538.386 243.73 538.115 243.428C537.842 243.125 537.361 243.608 537.105 244.061C536.846 244.514 535.79 244.486 535.548 245.724C535.307 246.961 536.045 248.22 536.045 248.22Z" fill="#FFB27D"/>
<path d="M317.202 240.542L352.995 256.224V242.27L334.346 234.6L352.995 226.929V213.106L317.202 228.788V240.542Z" fill="#2C3A64"/>
<path d="M385.903 203.441L354.974 268.109H368.047L398.975 203.441H385.903Z" fill="#2C3A64"/>
<path d="M401.37 213.106V227.06L420.019 234.731L401.37 242.401V256.224L437.163 240.542V228.788L401.37 213.106Z" fill="#2C3A64"/>
<path d="M354.974 268.109V264.415H368.047V268.109H354.974Z" fill="#2C3A64"/>
<path d="M398.975 199.747V203.442H392.868V199.75L398.975 199.747Z" fill="#2C3A64"/>
<path d="M317.202 236.851L352.995 252.533V238.579L334.346 230.908L352.995 223.235V209.412L317.202 225.094V236.851Z" fill="#445B93"/>
<path d="M385.903 199.748L354.974 264.415H368.047L398.975 199.748H385.903Z" fill="#445B93"/>
<path d="M401.37 209.412V223.366L420.019 231.039L401.37 238.709V252.533L437.163 236.851V225.094L401.37 209.412Z" fill="#445B93"/>
<path d="M517.942 339.749H515.762L497.92 271.652L474.985 184.112H218.848L257.647 339.749L254.879 339.777L215.611 181.999L476.787 181.773L477.016 182.644L499.944 270.654L517.942 339.749Z" fill="#274179"/>
<path d="M518.336 341.267L516.233 341.55L497.92 271.652L499.944 270.655L518.336 341.267Z" fill="#AEC3FF"/>
<path d="M255.448 220.777C254.972 221.325 254.909 221.937 255.147 222.593L255.152 222.603C255.588 223.812 257.036 225.162 258.716 226.511C258.929 226.686 259.12 226.843 259.288 226.99C259.33 227.027 259.375 227.065 259.417 227.104C259.449 227.135 259.482 227.165 259.515 227.193C261.081 228.639 260.491 228.968 263.306 231.901C266.516 235.24 268.724 235.3 269.352 234.994C269.884 234.735 268.803 232.965 267.608 230.974C267.55 230.878 267.491 230.78 267.433 230.684C267.274 230.42 267.115 230.149 266.957 229.883C265.554 227.487 265.913 226.364 266.247 222.799C266.516 219.901 270.752 206.61 270.752 206.61L264.604 205.55C264.604 205.55 262.753 216.132 260.712 217.764C259.62 218.633 258.399 218.642 257.351 219.287C257.276 219.331 257.204 219.378 257.131 219.425C256.536 219.819 255.929 220.228 255.448 220.777Z" fill="#FFB27D"/>
<path d="M255.448 220.777C254.972 221.325 254.909 221.937 255.147 222.593L255.152 222.603C255.686 223.81 257.096 225.155 258.721 226.5C258.934 226.675 259.12 226.838 259.288 226.99C259.33 227.027 259.375 227.065 259.417 227.104C259.449 227.135 259.482 227.165 259.515 227.193C261.081 228.639 260.491 228.968 263.306 231.901C266.516 235.24 268.724 235.3 269.352 234.994C269.884 234.735 268.803 232.965 267.608 230.974C266.982 230.745 264.081 229.566 261.887 226.759C259.954 224.291 258.665 221.122 257.351 219.287C257.276 219.331 257.204 219.378 257.131 219.425C256.536 219.819 255.929 220.228 255.448 220.777Z" fill="#625423"/>
<path d="M305.035 216.936C305.416 218.834 308.121 218.519 311.144 217.778C314.167 217.041 313.448 217.919 317.75 217.442C322.053 216.966 323.358 215.362 323.488 214.722C323.605 214.152 321.481 213.954 319.2 213.69C318.913 213.657 318.626 213.622 318.336 213.587C315.762 213.265 313.878 211.602 311.539 210.236C309.323 208.945 306.018 203.677 306.018 203.677L300.117 204.147C300.117 204.147 303.214 208.849 304.412 210.895C305.117 212.097 305.079 213.688 304.991 214.916C304.944 215.584 304.902 216.268 305.035 216.936Z" fill="#FFB27D"/>
<path d="M311.144 217.778C314.167 217.041 313.448 217.919 317.751 217.442C322.053 216.966 323.358 215.362 323.488 214.722C323.605 214.152 321.481 213.954 319.2 213.69L319.179 213.734C319.179 213.734 316.597 215.565 313.016 215.649C310.098 215.721 307.005 214.883 304.991 214.916C304.944 215.584 304.902 216.268 305.035 216.936C305.416 218.834 308.121 218.519 311.144 217.778Z" fill="#625423"/>
<path d="M282.424 179.197L276.908 194.043L269.707 213.428C269.707 213.428 267.753 213.617 265.883 213.078C264.16 212.581 262.183 211.278 262.183 211.278C262.183 211.278 264.181 190.464 267.912 178.515C268.869 175.45 269.94 172.967 271.121 171.571C276.904 164.737 282.424 179.197 282.424 179.197Z" fill="#2C3A64"/>
<path d="M276.817 155.621C273.204 154.453 262.897 155.95 252.544 157.979L250.376 154.402L228.014 152.655C228.014 152.655 220.634 169.024 224.674 179.454C225.268 180.986 226.448 181.969 228.459 182.002H228.786C228.786 182.002 242.096 181.995 246.417 181.995C257.538 181.995 269.952 174.347 271.558 174.025C274.189 173.5 275.239 178.758 277.868 184.281C280.496 189.803 302.577 208.735 302.577 208.735C302.577 208.735 305.971 208.768 307.374 208.242C308.882 207.677 309.433 206.942 309.433 206.942C309.433 206.942 284.967 158.25 276.817 155.621Z" fill="#2F539B"/>
<path d="M242.966 86.3063C239.834 85.5007 235.543 86.3039 234.833 86.374C226.324 87.2122 223.465 96.7064 224.753 104.071C225.941 110.87 222.494 112.75 218.499 118.121C210.489 128.885 215.725 137.963 222.045 140.303C225.838 141.707 231.103 138.164 231.103 138.164C231.198 138.204 247.647 127.386 254.389 121.287C265.619 116.892 250.952 88.3611 242.966 86.3063Z" fill="#445B93"/>
<path d="M244.222 117.446C244.446 118.233 240.725 119.68 237.885 119.148C235.212 118.651 232.215 115.519 232.833 115.225C233.855 114.74 234.544 113.53 233.984 106.994L234.493 107.05L243.046 108.029C243.046 108.029 243.072 110.693 243.27 113.189C243.436 115.284 243.858 116.162 244.222 117.446Z" fill="#FFB27D"/>
<path d="M243.046 108.029C243.046 108.029 243.072 110.693 243.27 113.189C238.55 113.441 235.709 109.35 234.493 107.05L243.046 108.029Z" fill="#ED975D"/>
<path d="M244.811 110.261C244.811 110.261 233.685 111.358 233.108 104.419C232.532 97.4769 230.707 92.9447 237.786 91.95C244.867 90.9552 246.468 93.4887 247.224 95.7583C247.981 98.0279 247.691 109.796 244.811 110.261Z" fill="#FFB27D"/>
<path d="M243.62 90.8548C243.62 90.8548 242.217 99.3332 235.882 101.346C231.259 102.815 229.165 101.846 229.165 101.846C229.165 101.846 231.39 98.8942 232.181 94.7916C232.414 93.5821 233.274 92.5851 234.444 92.2021C237.728 91.121 241.708 88.1649 243.62 90.8548Z" fill="#445B93"/>
<path d="M241.521 92.6621C241.521 92.6621 243.62 93.1291 245.478 95.8354C246.494 97.3158 247.668 101.042 247.467 102.696C247.467 102.696 249.416 94.8454 246.575 91.9266C243.564 88.8304 241.521 92.6621 241.521 92.6621Z" fill="#445B93"/>
<path d="M224.188 140.247C224.387 141.09 224.557 141.865 224.695 142.582C224.921 143.736 225.077 144.73 225.187 145.608C225.527 148.347 225.424 149.968 225.654 151.742C225.782 152.735 226.015 153.776 226.486 155.081C226.947 156.354 239.038 157.486 245.917 157.031C248.1 156.889 249.764 156.58 250.355 156.071C252.808 153.94 252.565 158.628 252.902 136.194C253.065 125.249 243.618 115.503 243.618 115.503C243.618 115.503 242.864 120.178 233.496 114.616C233.163 114.42 229.474 119.884 225.923 126.613C222.011 134.045 223.084 135.619 224.188 140.247Z" fill="#D92424"/>
<path d="M276.908 194.043L269.707 213.428C269.707 213.428 267.753 213.617 265.883 213.078C264.16 212.581 262.183 211.278 262.183 211.278C262.183 211.278 264.181 190.464 267.912 178.515L276.908 194.043Z" fill="#445B93"/>
<path d="M243.62 115.503C243.62 115.503 253.259 117.138 254.388 121.287C255.521 125.439 263.341 148.655 263.341 148.655C263.341 148.655 257.283 150.724 255.019 148.459C252.754 146.194 247.143 127.451 247.143 127.451L243.62 115.503Z" fill="#D92424"/>
<path d="M282.912 143.32L285.195 142.414C285.195 142.414 286.568 142.11 287.31 142.344C288.053 142.577 289.908 142.552 289.918 142.858C289.927 143.161 287.803 144.109 287.803 144.109L287.735 144.084C288.543 145.912 292.579 146.956 292.775 147.626C293.011 148.438 291.132 148.859 290.109 149.113C289.087 149.368 286.58 149.342 285.342 148.039C284.441 147.084 282.912 145.774 282.912 145.774V143.32Z" fill="#FFB27D"/>
<path d="M242.243 106.168C242.243 106.168 242.71 107.31 243.942 107.31C245.172 107.31 245.506 107.125 245.74 106.864C245.973 106.604 246.204 106.1 246.204 106.1C246.204 106.1 244.162 105.699 242.243 106.168Z" fill="white"/>
<path d="M260.654 140.632L283.991 142.414C283.991 142.414 284.479 144.679 282.973 147.245C282.973 147.245 261.922 151.362 256.426 149.26C250.934 147.156 251.552 137.242 251.552 137.242L260.654 140.632Z" fill="#D92424"/>
<path d="M225.187 145.608C225.527 148.347 225.424 149.968 225.654 151.742C234.406 151.77 246.106 144.983 246.106 144.983L225.187 145.608Z" fill="#781616"/>
<path d="M246.106 139.241C246.106 139.241 232.473 138.834 230.175 131.082C227.65 122.567 224.822 134.585 224.822 134.585L226.327 142.255H241.286L246.106 139.241Z" fill="#781616"/>
<path d="M269.875 118.207L269.139 116.381C268.348 114.424 266.45 113.145 264.34 113.145H250.749V121.77V158.6H306.973V121.77H275.157C272.835 121.77 270.746 120.36 269.875 118.207Z" fill="#AEC3FF"/>
<path d="M259.23 140.787V137.508L270.72 132.474V135.822L262.694 139.124L270.72 142.423V145.821L259.23 140.787Z" fill="white"/>
<path d="M282.658 128.558H285.72L275.204 150.544H272.144L282.658 128.558Z" fill="white"/>
<path d="M298.492 137.508V140.787L287.002 145.821V142.472L295.025 139.171L287.002 135.871V132.474L298.492 137.508Z" fill="white"/>
<path d="M246.106 141.039L247.091 139.488C247.091 139.488 247.873 139.234 248.968 138.466C250.271 137.55 250.098 136.18 250.749 136.327L250.756 139.336L250.686 139.348C253.48 140.093 256.749 139.283 256.814 139.979C256.994 141.893 255.514 142.755 254.272 143.355C253.324 143.813 252.246 144.502 250.53 143.967C249.276 143.577 247.304 143.18 247.304 143.18L246.106 141.039Z" fill="#FFB27D"/>
<path d="M233.496 114.616C233.496 114.616 224.645 115.195 222.432 118.648C220.22 122.102 217.476 139.631 218.627 145.653C219.777 151.672 248.118 144.501 248.118 144.501L247.215 139.278C247.215 139.278 230.858 139.371 229.926 137.242C228.687 134.407 233.496 114.616 233.496 114.616Z" fill="#D92424"/>
<path d="M276.217 121.752C276.143 121.98 277.548 124.299 279.558 123.897C280.811 123.645 282.441 120.946 281.01 120.351C278.622 119.358 276.42 121.137 276.217 121.752Z" fill="#FFB27D"/>
</svg>
